<svg xmlns="http://www.w3.org/2000/svg" xmlns:xlink="http://www.w3.org/1999/xlink" contentStyleType="text/css" data-diagram-type="ACTIVITY" height="1023px" preserveAspectRatio="none" style="width:266px;height:1023px;background:#FEFEFE;" version="1.1" viewBox="0 0 266 1023" width="266px" zoomAndPan="magnify"><?plantuml 1.2026.5?><defs/><g><rect fill="#FEFEFE" height="1023" style="stroke:none;stroke-width:1;" width="266" x="0" y="0"/><g class="title" data-source-line="1"><text fill="#000000" font-family="sans-serif" font-size="14" font-weight="700" lengthAdjust="spacing" textLength="218.2441" x="22.9072" y="34.5332">GPIO Driver &#8212; Initialization Flow</text></g><ellipse cx="131.0293" cy="63.6094" fill="#222222" rx="10" ry="10" style="stroke:#222222;stroke-width:1;"/><rect fill="#F5FAFF" height="50.1875" rx="12.5" ry="12.5" style="stroke:#2C7FB8;stroke-width:0.5;" width="204.7168" x="28.6709" y="93.6094"/><text fill="#000000" font-family="sans-serif" font-size="12" lengthAdjust="spacing" textLength="86.0449" x="38.6709" y="116.0664">Application calls</text><text fill="#000000" font-family="sans-serif" font-size="12" lengthAdjust="spacing" textLength="184.7168" x="38.6709" y="131.1602">GPIO led(GPIO_Port::PORTx, pin)</text><rect fill="#F5FAFF" height="50.1875" rx="12.5" ry="12.5" style="stroke:#2C7FB8;stroke-width:0.5;" width="217.4258" x="22.3164" y="163.7969"/><text fill="#000000" font-family="sans-serif" font-size="12" lengthAdjust="spacing" textLength="197.4258" x="32.3164" y="186.2539">Constructor stores port base address</text><text fill="#000000" font-family="sans-serif" font-size="12" lengthAdjust="spacing" textLength="83.3906" x="32.3164" y="201.3477">and pin number</text><rect fill="#F5FAFF" height="50.1875" rx="12.5" ry="12.5" style="stroke:#2C7FB8;stroke-width:0.5;" width="216.0547" x="23.002" y="233.9844"/><text fill="#000000" font-family="sans-serif" font-size="12" lengthAdjust="spacing" textLength="196.0547" x="33.002" y="256.4414">RCC_Driver::enableGPIOClock(port)</text><text fill="#000000" font-family="sans-serif" font-size="12" lengthAdjust="spacing" textLength="145.3711" x="33.002" y="271.5352">(set bit in RCC_AHB1ENR)</text><rect fill="#F5FAFF" height="50.1875" rx="12.5" ry="12.5" style="stroke:#2C7FB8;stroke-width:0.5;" width="216.0605" x="22.999" y="304.1719"/><text fill="#000000" font-family="sans-serif" font-size="12" lengthAdjust="spacing" textLength="86.0449" x="32.999" y="326.6289">Application calls</text><text fill="#000000" font-family="sans-serif" font-size="12" lengthAdjust="spacing" textLength="196.0605" x="32.999" y="341.7227">led.setMode(GPIO_Mode::OUTPUT)</text><rect fill="#F5FAFF" height="50.1875" rx="12.5" ry="12.5" style="stroke:#2C7FB8;stroke-width:0.5;" width="148.0625" x="56.998" y="423.2773"/><text fill="#000000" font-family="sans-serif" font-size="12" lengthAdjust="spacing" textLength="128.0625" x="66.998" y="445.7344">setAlternateFunction(af)</text><text fill="#000000" font-family="sans-serif" font-size="12" lengthAdjust="spacing" textLength="103.3359" x="66.998" y="460.8281">(write AFRL/AFRH)</text><polygon fill="#F5FAFF" points="72.3367,374.3594,189.7219,374.3594,201.7219,386.3594,189.7219,398.3594,72.3367,398.3594,60.3367,386.3594,72.3367,374.3594" style="stroke:#2C7FB8;stroke-width:0.5;stroke-linejoin:miter;stroke-miterlimit:10;"/><text fill="#000000" font-family="sans-serif" font-size="11" lengthAdjust="spacing" textLength="17.1177" x="135.0293" y="409.7783">yes</text><text fill="#000000" font-family="sans-serif" font-size="11" lengthAdjust="spacing" textLength="117.3853" x="72.3367" y="390.8604">Mode == ALTERNATE?</text><text fill="#000000" font-family="sans-serif" font-size="11" lengthAdjust="spacing" textLength="12.2354" x="201.7219" y="383.9424">no</text><polygon fill="#F5FAFF" points="131.0293,493.4648,143.0293,505.4648,131.0293,517.4648,119.0293,505.4648,131.0293,493.4648" style="stroke:#2C7FB8;stroke-width:0.5;stroke-linejoin:miter;stroke-miterlimit:10;"/><rect fill="#F5FAFF" height="50.1875" rx="12.5" ry="12.5" style="stroke:#2C7FB8;stroke-width:0.5;" width="203.375" x="29.3418" y="537.4648"/><text fill="#000000" font-family="sans-serif" font-size="12" lengthAdjust="spacing" textLength="183.375" x="39.3418" y="559.9219">Write 2-bit field in GPIOx_MODER</text><text fill="#000000" font-family="sans-serif" font-size="12" lengthAdjust="spacing" textLength="53.3672" x="39.3418" y="575.0156">for the pin</text><rect fill="#F5FAFF" height="50.1875" rx="12.5" ry="12.5" style="stroke:#2C7FB8;stroke-width:0.5;" width="148.6836" x="56.6875" y="656.5703"/><text fill="#000000" font-family="sans-serif" font-size="12" lengthAdjust="spacing" textLength="86.7012" x="66.6875" y="679.0273">setOutputType()</text><text fill="#000000" font-family="sans-serif" font-size="12" lengthAdjust="spacing" textLength="128.6836" x="66.6875" y="694.1211">(write GPIOx_OTYPER)</text><rect fill="#F5FAFF" height="50.1875" rx="12.5" ry="12.5" style="stroke:#2C7FB8;stroke-width:0.5;" width="158.0234" x="52.0176" y="741.7578"/><text fill="#000000" font-family="sans-serif" font-size="12" lengthAdjust="spacing" textLength="58.6992" x="62.0176" y="764.2148">setSpeed()</text><text fill="#000000" font-family="sans-serif" font-size="12" lengthAdjust="spacing" textLength="138.0234" x="62.0176" y="779.3086">(write GPIOx_OSPEEDR)</text><polygon fill="#F5FAFF" points="82.1228,607.6523,179.9358,607.6523,191.9358,619.6523,179.9358,631.6523,82.1228,631.6523,70.1228,619.6523,82.1228,607.6523" style="stroke:#2C7FB8;stroke-width:0.5;stroke-linejoin:miter;stroke-miterlimit:10;"/><text fill="#000000" font-family="sans-serif" font-size="11" lengthAdjust="spacing" textLength="17.1177" x="135.0293" y="643.0713">yes</text><text fill="#000000" font-family="sans-serif" font-size="11" lengthAdjust="spacing" textLength="97.813" x="82.1228" y="624.1533">Mode == OUTPUT?</text><text fill="#000000" font-family="sans-serif" font-size="11" lengthAdjust="spacing" textLength="12.2354" x="191.9358" y="617.2354">no</text><polygon fill="#F5FAFF" points="131.0293,811.9453,143.0293,823.9453,131.0293,835.9453,119.0293,823.9453,131.0293,811.9453" style="stroke:#2C7FB8;stroke-width:0.5;stroke-linejoin:miter;stroke-miterlimit:10;"/><rect fill="#F5FAFF" height="50.1875" rx="12.5" ry="12.5" style="stroke:#2C7FB8;stroke-width:0.5;" width="141.3477" x="60.3555" y="855.9453"/><text fill="#000000" font-family="sans-serif" font-size="12" lengthAdjust="spacing" textLength="44.0098" x="70.3555" y="878.4023">setPull()</text><text fill="#000000" font-family="sans-serif" font-size="12" lengthAdjust="spacing" textLength="121.3477" x="70.3555" y="893.4961">(write GPIOx_PUPDR)</text><rect fill="#F5FAFF" height="35.0938" rx="12.5" ry="12.5" style="stroke:#2C7FB8;stroke-width:0.5;" width="230.0586" x="16" y="926.1328"/><text fill="#000000" font-family="sans-serif" font-size="12" lengthAdjust="spacing" textLength="210.0586" x="26" y="948.5898">GPIO ready for read() / write() / toggle()</text><ellipse cx="131.0293" cy="992.2266" fill="none" rx="11" ry="11" style="stroke:#222222;stroke-width:1;"/><ellipse cx="131.0293" cy="992.2266" fill="#222222" rx="6" ry="6" style="stroke:#222222;stroke-width:1;"/><line style="stroke:#2C7FB8;stroke-width:1;" x1="131.0293" x2="131.0293" y1="73.6094" y2="93.6094"/><polygon fill="#2C7FB8" points="127.0293,83.6094,131.0293,93.6094,135.0293,83.6094,131.0293,87.6094" style="stroke:#2C7FB8;stroke-width:1;stroke-linejoin:miter;stroke-miterlimit:10;"/><line style="stroke:#2C7FB8;stroke-width:1;" x1="131.0293" x2="131.0293" y1="143.7969" y2="163.7969"/><polygon fill="#2C7FB8" points="127.0293,153.7969,131.0293,163.7969,135.0293,153.7969,131.0293,157.7969" style="stroke:#2C7FB8;stroke-width:1;stroke-linejoin:miter;stroke-miterlimit:10;"/><line style="stroke:#2C7FB8;stroke-width:1;" x1="131.0293" x2="131.0293" y1="213.9844" y2="233.9844"/><polygon fill="#2C7FB8" points="127.0293,223.9844,131.0293,233.9844,135.0293,223.9844,131.0293,227.9844" style="stroke:#2C7FB8;stroke-width:1;stroke-linejoin:miter;stroke-miterlimit:10;"/><line style="stroke:#2C7FB8;stroke-width:1;" x1="131.0293" x2="131.0293" y1="284.1719" y2="304.1719"/><polygon fill="#2C7FB8" points="127.0293,294.1719,131.0293,304.1719,135.0293,294.1719,131.0293,298.1719" style="stroke:#2C7FB8;stroke-width:1;stroke-linejoin:miter;stroke-miterlimit:10;"/><line style="stroke:#2C7FB8;stroke-width:1;" x1="131.0293" x2="131.0293" y1="398.3594" y2="423.2773"/><polygon fill="#2C7FB8" points="127.0293,413.2773,131.0293,423.2773,135.0293,413.2773,131.0293,417.2773" style="stroke:#2C7FB8;stroke-width:1;stroke-linejoin:miter;stroke-miterlimit:10;"/><line style="stroke:#2C7FB8;stroke-width:1;" x1="201.7219" x2="215.0605" y1="386.3594" y2="386.3594"/><polygon fill="#2C7FB8" points="211.0605,438.3711,215.0605,448.3711,219.0605,438.3711,215.0605,442.3711" style="stroke:#2C7FB8;stroke-width:1;stroke-linejoin:miter;stroke-miterlimit:10;"/><line style="stroke:#2C7FB8;stroke-width:1;" x1="215.0605" x2="215.0605" y1="386.3594" y2="505.4648"/><line style="stroke:#2C7FB8;stroke-width:1;" x1="215.0605" x2="143.0293" y1="505.4648" y2="505.4648"/><polygon fill="#2C7FB8" points="153.0293,501.4648,143.0293,505.4648,153.0293,509.4648,149.0293,505.4648" style="stroke:#2C7FB8;stroke-width:1;stroke-linejoin:miter;stroke-miterlimit:10;"/><line style="stroke:#2C7FB8;stroke-width:1;" x1="131.0293" x2="131.0293" y1="473.4648" y2="493.4648"/><polygon fill="#2C7FB8" points="127.0293,483.4648,131.0293,493.4648,135.0293,483.4648,131.0293,487.4648" style="stroke:#2C7FB8;stroke-width:1;stroke-linejoin:miter;stroke-miterlimit:10;"/><line style="stroke:#2C7FB8;stroke-width:1;" x1="131.0293" x2="131.0293" y1="354.3594" y2="374.3594"/><polygon fill="#2C7FB8" points="127.0293,364.3594,131.0293,374.3594,135.0293,364.3594,131.0293,368.3594" style="stroke:#2C7FB8;stroke-width:1;stroke-linejoin:miter;stroke-miterlimit:10;"/><line style="stroke:#2C7FB8;stroke-width:1;" x1="131.0293" x2="131.0293" y1="517.4648" y2="537.4648"/><polygon fill="#2C7FB8" points="127.0293,527.4648,131.0293,537.4648,135.0293,527.4648,131.0293,531.4648" style="stroke:#2C7FB8;stroke-width:1;stroke-linejoin:miter;stroke-miterlimit:10;"/><line style="stroke:#2C7FB8;stroke-width:1;" x1="131.0293" x2="131.0293" y1="706.7578" y2="741.7578"/><polygon fill="#2C7FB8" points="127.0293,731.7578,131.0293,741.7578,135.0293,731.7578,131.0293,735.7578" style="stroke:#2C7FB8;stroke-width:1;stroke-linejoin:miter;stroke-miterlimit:10;"/><line style="stroke:#2C7FB8;stroke-width:1;" x1="131.0293" x2="131.0293" y1="631.6523" y2="656.5703"/><polygon fill="#2C7FB8" points="127.0293,646.5703,131.0293,656.5703,135.0293,646.5703,131.0293,650.5703" style="stroke:#2C7FB8;stroke-width:1;stroke-linejoin:miter;stroke-miterlimit:10;"/><line style="stroke:#2C7FB8;stroke-width:1;" x1="191.9358" x2="220.041" y1="619.6523" y2="619.6523"/><polygon fill="#2C7FB8" points="216.041,714.2578,220.041,724.2578,224.041,714.2578,220.041,718.2578" style="stroke:#2C7FB8;stroke-width:1;stroke-linejoin:miter;stroke-miterlimit:10;"/><line style="stroke:#2C7FB8;stroke-width:1;" x1="220.041" x2="220.041" y1="619.6523" y2="823.9453"/><line style="stroke:#2C7FB8;stroke-width:1;" x1="220.041" x2="143.0293" y1="823.9453" y2="823.9453"/><polygon fill="#2C7FB8" points="153.0293,819.9453,143.0293,823.9453,153.0293,827.9453,149.0293,823.9453" style="stroke:#2C7FB8;stroke-width:1;stroke-linejoin:miter;stroke-miterlimit:10;"/><line style="stroke:#2C7FB8;stroke-width:1;" x1="131.0293" x2="131.0293" y1="791.9453" y2="811.9453"/><polygon fill="#2C7FB8" points="127.0293,801.9453,131.0293,811.9453,135.0293,801.9453,131.0293,805.9453" style="stroke:#2C7FB8;stroke-width:1;stroke-linejoin:miter;stroke-miterlimit:10;"/><line style="stroke:#2C7FB8;stroke-width:1;" x1="131.0293" x2="131.0293" y1="587.6523" y2="607.6523"/><polygon fill="#2C7FB8" points="127.0293,597.6523,131.0293,607.6523,135.0293,597.6523,131.0293,601.6523" style="stroke:#2C7FB8;stroke-width:1;stroke-linejoin:miter;stroke-miterlimit:10;"/><line style="stroke:#2C7FB8;stroke-width:1;" x1="131.0293" x2="131.0293" y1="835.9453" y2="855.9453"/><polygon fill="#2C7FB8" points="127.0293,845.9453,131.0293,855.9453,135.0293,845.9453,131.0293,849.9453" style="stroke:#2C7FB8;stroke-width:1;stroke-linejoin:miter;stroke-miterlimit:10;"/><line style="stroke:#2C7FB8;stroke-width:1;" x1="131.0293" x2="131.0293" y1="906.1328" y2="926.1328"/><polygon fill="#2C7FB8" points="127.0293,916.1328,131.0293,926.1328,135.0293,916.1328,131.0293,920.1328" style="stroke:#2C7FB8;stroke-width:1;stroke-linejoin:miter;stroke-miterlimit:10;"/><line style="stroke:#2C7FB8;stroke-width:1;" x1="131.0293" x2="131.0293" y1="961.2266" y2="981.2266"/><polygon fill="#2C7FB8" points="127.0293,971.2266,131.0293,981.2266,135.0293,971.2266,131.0293,975.2266" style="stroke:#2C7FB8;stroke-width:1;stroke-linejoin:miter;stroke-miterlimit:10;"/><?plantuml-src RPBXQjim4CU_-oaEziM6RMM5iQ5IXkFOQw6jZUim1e6WM9TCH9MCV6wQZi4UOa-u9zd97cmbiK4Sv___xdSdaoQ3yBcwBc7kzIDw-Ftp5rnRJLeQ_In9Emk5SViewdVQTjBB1rZBThVrRh0gSyPvU5NauVrF8LlIZveEy3q2VcP7XlT5MXJJD-SL-h_vy-n3CViuvbFltVvb-WT3aFGKYRJhZ6udkbOQqo_jE8D15OTWLJbFGbHbtJozXaxRv28IcRCz-Q4bBjdpWJrqBEDnUWIf52UuZhGg6C0E3slqRAkpR3NjHWYqScqmTCYCQtTny2TB6_V8PJG1-u8ylPgzo-_gqFG4AKE-PSEjKpZ1XaY8Sj5KYuOzUWDnIC7b9QGtJLxVfKt-AG7wXXRY0_O9BqXmXTGGUYi9Yy6seKCiDu5cxpKXf4LzSyR75PT4moF6rYKHMgKtaVWoIixV1EYDHgC2Ue1vMjsMyxnUsWrlYJk6NRn4cZXFyPG3TGCrXmxZVnXJqRBvMkLX8PFolaE-gIFHVPNdy_eKBtkgmPWZIxMeHeCOhz-ZL0S8v26A4pY3KJn6vBPRm-45_qIkY_u0?></g></svg>