<svg xmlns="http://www.w3.org/2000/svg" xmlns:xlink="http://www.w3.org/1999/xlink" contentStyleType="text/css" data-diagram-type="DESCRIPTION" height="823px" preserveAspectRatio="none" style="width:1092px;height:823px;background:#FEFEFE;" version="1.1" viewBox="0 0 1092 823" width="1092px" zoomAndPan="magnify"><?plantuml 1.2026.5?><defs/><g><rect fill="#FEFEFE" height="823" style="stroke:none;stroke-width:1;" width="1092" x="0" y="0"/><g class="title" data-source-line="1"><text fill="#000000" font-family="sans-serif" font-size="14" font-weight="700" lengthAdjust="spacing" textLength="302.3125" x="391.6738" y="24.5332">Driver Layer Architecture &#8212; up to v0.8.0 (I2C)</text></g><!--cluster Application Layer--><g class="cluster" data-qualified-name="Application Layer" data-source-line="10" id="ent0001"><path d="M594.91,44.6094 L713.3788,44.6094 A3.75,3.75 0 0 1 715.8788,47.1094 L722.8788,68.2188 L855.91,68.2188 A2.5,2.5 0 0 1 858.41,70.7188 L858.41,167.1094 A2.5,2.5 0 0 1 855.91,169.6094 L594.91,169.6094 A2.5,2.5 0 0 1 592.41,167.1094 L592.41,47.1094 A2.5,2.5 0 0 1 594.91,44.6094" fill="none" style="stroke:#000000;stroke-width:1.5;"/><line style="stroke:#000000;stroke-width:1.5;" x1="592.41" x2="722.8788" y1="68.2188" y2="68.2188"/><text fill="#000000" font-family="sans-serif" font-size="14" font-weight="700" lengthAdjust="spacing" textLength="117.4688" x="596.41" y="61.1426">Application Layer</text></g><!--cluster Driver Layer (C++, object-oriented)--><g class="cluster" data-qualified-name="Driver Layer .C... object-oriented." data-source-line="14" id="ent0003"><path d="M269.91,202.6094 L501.1991,202.6094 A3.75,3.75 0 0 1 503.6991,205.1094 L510.6991,226.2188 L1067.91,226.2188 A2.5,2.5 0 0 1 1070.41,228.7188 L1070.41,522.1094 A2.5,2.5 0 0 1 1067.91,524.6094 L269.91,524.6094 A2.5,2.5 0 0 1 267.41,522.1094 L267.41,205.1094 A2.5,2.5 0 0 1 269.91,202.6094" fill="none" style="stroke:#000000;stroke-width:1.5;"/><line style="stroke:#000000;stroke-width:1.5;" x1="267.41" x2="510.6991" y1="226.2188" y2="226.2188"/><text fill="#000000" font-family="sans-serif" font-size="14" font-weight="700" lengthAdjust="spacing" textLength="230.2891" x="271.41" y="219.1426">Driver Layer (C++, object-oriented)</text></g><!--cluster Register Access Layer--><g class="cluster" data-qualified-name="Register Access Layer" data-source-line="25" id="ent0012"><path d="M135.91,557.6094 L287.1092,557.6094 A3.75,3.75 0 0 1 289.6092,560.1094 L296.6092,581.2188 L416.91,581.2188 A2.5,2.5 0 0 1 419.41,583.7188 L419.41,680.1094 A2.5,2.5 0 0 1 416.91,682.6094 L135.91,682.6094 A2.5,2.5 0 0 1 133.41,680.1094 L133.41,560.1094 A2.5,2.5 0 0 1 135.91,557.6094" fill="none" style="stroke:#000000;stroke-width:1.5;"/><line style="stroke:#000000;stroke-width:1.5;" x1="133.41" x2="296.6092" y1="581.2188" y2="581.2188"/><text fill="#000000" font-family="sans-serif" font-size="14" font-weight="700" lengthAdjust="spacing" textLength="150.1992" x="137.41" y="574.1426">Register Access Layer</text></g><!--cluster Hardware--><g class="cluster" data-qualified-name="Hardware" data-source-line="29" id="ent0014"><path d="M330.91,715.6094 L395.7166,715.6094 A3.75,3.75 0 0 1 398.2166,718.1094 L405.2166,739.2188 L519.91,739.2188 A2.5,2.5 0 0 1 522.41,741.7188 L522.41,803.1094 A2.5,2.5 0 0 1 519.91,805.6094 L330.91,805.6094 A2.5,2.5 0 0 1 328.41,803.1094 L328.41,718.1094 A2.5,2.5 0 0 1 330.91,715.6094" fill="none" style="stroke:#000000;stroke-width:1.5;"/><line style="stroke:#000000;stroke-width:1.5;" x1="328.41" x2="405.2166" y1="739.2188" y2="739.2188"/><text fill="#000000" font-family="sans-serif" font-size="14" font-weight="700" lengthAdjust="spacing" textLength="63.8066" x="332.41" y="732.1426">Hardware</text></g><!--entity APP--><g class="entity" data-qualified-name="Application Layer.APP" data-source-line="11" id="ent0002"><rect fill="#F5FAFF" height="72.8281" rx="2.5" ry="2.5" style="stroke:#2C7FB8;stroke-width:0.5;" width="233.9717" x="608.41" y="80.6094"/><text fill="#000000" font-family="sans-serif" font-size="14" lengthAdjust="spacing" textLength="79.3789" x="618.41" y="105.1426">Applications/</text><text fill="#000000" font-family="sans-serif" font-size="14" lengthAdjust="spacing" textLength="156.0166" x="618.41" y="122.752">(LED blink, Button+EXTI,</text><text fill="#000000" font-family="sans-serif" font-size="14" lengthAdjust="spacing" textLength="213.9717" x="618.41" y="140.3613">USART loopback, SPI/I2C demos)</text></g><!--entity GPIO--><g class="entity" data-qualified-name="Driver Layer .C... object-oriented..GPIO" data-source-line="15" id="ent0004"><rect fill="#F5FAFF" height="37.6094" rx="2.5" ry="2.5" style="stroke:#2C7FB8;stroke-width:0.5;" width="55.0068" x="685.91" y="354.6094"/><text fill="#000000" font-family="sans-serif" font-size="14" lengthAdjust="spacing" textLength="35.0068" x="695.91" y="379.1426">GPIO</text></g><!--entity USART--><g class="entity" data-qualified-name="Driver Layer .C... object-oriented..USART" data-source-line="16" id="ent0005"><rect fill="#F5FAFF" height="37.6094" rx="2.5" ry="2.5" style="stroke:#2C7FB8;stroke-width:0.5;" width="67.4482" x="387.91" y="238.6094"/><text fill="#000000" font-family="sans-serif" font-size="14" lengthAdjust="spacing" textLength="47.4482" x="397.91" y="263.1426">USART</text></g><!--entity SPI--><g class="entity" data-qualified-name="Driver Layer .C... object-oriented..SPI" data-source-line="17" id="ent0006"><rect fill="#F5FAFF" height="37.6094" rx="2.5" ry="2.5" style="stroke:#2C7FB8;stroke-width:0.5;" width="42.5654" x="489.91" y="238.6094"/><text fill="#000000" font-family="sans-serif" font-size="14" lengthAdjust="spacing" textLength="22.5654" x="499.91" y="263.1426">SPI</text></g><!--entity I2C--><g class="entity" data-qualified-name="Driver Layer .C... object-oriented..I2C" data-source-line="18" id="ent0007"><rect fill="#F5FAFF" height="37.6094" rx="2.5" ry="2.5" style="stroke:#2C7FB8;stroke-width:0.5;" width="41.7861" x="962.41" y="238.6094"/><text fill="#000000" font-family="sans-serif" font-size="14" lengthAdjust="spacing" textLength="21.7861" x="972.41" y="263.1426">I2C</text></g><!--entity EXTI--><g class="entity" data-qualified-name="Driver Layer .C... object-oriented..EXTI" data-source-line="19" id="ent0008"><rect fill="#F5FAFF" height="37.6094" rx="2.5" ry="2.5" style="stroke:#2C7FB8;stroke-width:0.5;" width="51.1172" x="699.91" y="238.6094"/><text fill="#000000" font-family="sans-serif" font-size="14" lengthAdjust="spacing" textLength="31.1172" x="709.91" y="263.1426">EXTI</text></g><!--entity NVIC--><g class="entity" data-qualified-name="Driver Layer .C... object-oriented..NVIC" data-source-line="20" id="ent0009"><rect fill="#F5FAFF" height="37.6094" rx="2.5" ry="2.5" style="stroke:#2C7FB8;stroke-width:0.5;" width="53.4482" x="785.91" y="354.6094"/><text fill="#000000" font-family="sans-serif" font-size="14" lengthAdjust="spacing" textLength="33.4482" x="795.91" y="379.1426">NVIC</text></g><!--entity SYSTICK--><g class="entity" data-qualified-name="Driver Layer .C... object-oriented..SYSTICK" data-source-line="21" id="ent0010"><rect fill="#F5FAFF" height="37.6094" rx="2.5" ry="2.5" style="stroke:#2C7FB8;stroke-width:0.5;" width="69" x="283.91" y="238.6094"/><text fill="#000000" font-family="sans-serif" font-size="14" lengthAdjust="spacing" textLength="49" x="293.91" y="263.1426">SysTick</text></g><!--entity RCC--><g class="entity" data-qualified-name="Driver Layer .C... object-oriented..RCC" data-source-line="22" id="ent0011"><rect fill="#F5FAFF" height="37.6094" rx="2.5" ry="2.5" style="stroke:#2C7FB8;stroke-width:0.5;" width="50.3311" x="499.41" y="470.6094"/><text fill="#000000" font-family="sans-serif" font-size="14" lengthAdjust="spacing" textLength="30.3311" x="509.41" y="495.1426">RCC</text></g><!--entity REGS--><g class="entity" data-qualified-name="Register Access Layer.REGS" data-source-line="26" id="ent0013"><rect fill="#F5FAFF" height="72.8281" rx="2.5" ry="2.5" style="stroke:#2C7FB8;stroke-width:0.5;" width="252.6475" x="149.91" y="593.6094"/><text fill="#000000" font-family="sans-serif" font-size="14" lengthAdjust="spacing" textLength="159.5029" x="159.91" y="618.1426">Peripheral register structs</text><text fill="#000000" font-family="sans-serif" font-size="14" lengthAdjust="spacing" textLength="232.6475" x="159.91" y="635.752">(GPIO_RegDef_t, USART_RegDef_t,</text><text fill="#000000" font-family="sans-serif" font-size="14" lengthAdjust="spacing" textLength="210.1025" x="159.91" y="653.3613">SPI_RegDef_t, I2C_RegDef_t, ...)</text></g><!--entity HW--><g class="entity" data-qualified-name="Hardware.HW" data-source-line="30" id="ent0015"><rect fill="#F5FAFF" height="37.6094" rx="2.5" ry="2.5" style="stroke:#2C7FB8;stroke-width:0.5;" width="162.3926" x="344.41" y="751.6094"/><text fill="#000000" font-family="sans-serif" font-size="14" lengthAdjust="spacing" textLength="142.3926" x="354.41" y="776.1426">STM32F407VG Silicon</text></g><g class="entity" data-qualified-name="GMN39" data-source-line="61" id="ent0040"><path d="M115.41,733.1094 L115.41,808.5156 A0,0 0 0 0 115.41,808.5156 L309.8153,808.5156 A0,0 0 0 0 309.8153,808.5156 L309.8153,743.1094 L299.8153,733.1094 L233.28,733.1094 L259.93,666.7794 L225.28,733.1094 L115.41,733.1094 A0,0 0 0 0 115.41,733.1094" fill="#FEFFDD" style="stroke:#181818;stroke-width:0.5;"/><path d="M299.8153,733.1094 L299.8153,743.1094 L309.8153,743.1094 L299.8153,733.1094" fill="#FEFFDD" style="stroke:#181818;stroke-width:0.5;"/><text fill="#000000" font-family="sans-serif" font-size="13" lengthAdjust="spacing" textLength="173.4053" x="121.41" y="751.6045">No HAL, no LL &#8212; every driver</text><text fill="#000000" font-family="sans-serif" font-size="13" lengthAdjust="spacing" textLength="171.9453" x="121.41" y="767.9561">reads/writes memory-mapped</text><text fill="#000000" font-family="sans-serif" font-size="13" lengthAdjust="spacing" textLength="150.2808" x="121.41" y="784.3076">registers directly via typed</text><text fill="#000000" font-family="sans-serif" font-size="13" lengthAdjust="spacing" textLength="85.2554" x="121.41" y="800.6592">struct pointers.</text></g><!--link APP to GPIO--><g class="link" data-entity-1="ent0002" data-entity-2="ent0004" data-link-type="dependency" data-source-line="33" id="lnk16"><path d="M842.5,133.8994 C915.26,146.3194 999.22,166.2894 1022.41,194.6094 C1059.05,239.3594 1066.89,281.4294 1028.41,324.6094 C989.71,368.0294 825.22,342.1694 768.41,354.6094 C759.38,356.5894 754.484,357.8899 745.834,360.7699" fill="none" id="APP-to-GPIO" style="stroke:#181818;stroke-width:1;"/><polygon fill="#181818" points="741.09,362.3494,750.8927,363.3015,745.834,360.7699,748.3655,355.7111,741.09,362.3494" style="stroke:#181818;stroke-width:1;stroke-linejoin:miter;stroke-miterlimit:10;"/></g><!--link APP to USART--><g class="link" data-entity-1="ent0002" data-entity-2="ent0005" data-link-type="dependency" data-source-line="34" id="lnk17"><path d="M608.3,138.3294 C563.21,149.8694 512.88,167.6294 472.41,194.6094 C455.48,205.8994 444.0072,220.2952 434.9272,234.1752" fill="none" id="APP-to-USART" style="stroke:#181818;stroke-width:1;"/><polygon fill="#181818" points="432.19,238.3594,440.4644,233.0176,434.9272,234.1752,433.7696,228.638,432.19,238.3594" style="stroke:#181818;stroke-width:1;stroke-linejoin:miter;stroke-miterlimit:10;"/></g><!--link APP to SPI--><g class="link" data-entity-1="ent0002" data-entity-2="ent0006" data-link-type="dependency" data-source-line="35" id="lnk18"><path d="M670.3,153.7794 C625.59,182.7094 569.1381,219.2536 537.2481,239.8836" fill="none" id="APP-to-SPI" style="stroke:#181818;stroke-width:1;"/><polygon fill="#181818" points="533.05,242.5994,542.7793,241.0694,537.2481,239.8836,538.434,234.3524,533.05,242.5994" style="stroke:#181818;stroke-width:1;stroke-linejoin:miter;stroke-miterlimit:10;"/></g><!--link APP to I2C--><g class="link" data-entity-1="ent0002" data-entity-2="ent0007" data-link-type="dependency" data-source-line="36" id="lnk19"><path d="M791.85,153.7794 C848.14,183.9894 920.9841,223.1055 957.8141,242.8655" fill="none" id="APP-to-I2C" style="stroke:#181818;stroke-width:1;"/><polygon fill="#181818" points="962.22,245.2294,956.1804,237.4497,957.8141,242.8655,952.3982,244.4992,962.22,245.2294" style="stroke:#181818;stroke-width:1;stroke-linejoin:miter;stroke-miterlimit:10;"/></g><!--link APP to EXTI--><g class="link" data-entity-1="ent0002" data-entity-2="ent0008" data-link-type="dependency" data-source-line="37" id="lnk20"><path d="M725.41,153.7794 C725.41,180.8694 725.41,212.0094 725.41,233.4394" fill="none" id="APP-to-EXTI" style="stroke:#181818;stroke-width:1;"/><polygon fill="#181818" points="725.41,238.4394,729.41,229.4394,725.41,233.4394,721.41,229.4394,725.41,238.4394" style="stroke:#181818;stroke-width:1;stroke-linejoin:miter;stroke-miterlimit:10;"/></g><!--link GPIO to RCC--><g class="link" data-entity-1="ent0004" data-entity-2="ent0011" data-link-type="dependency" data-source-line="39" id="lnk21"><path d="M685.52,391.4294 C648.86,413.5394 589.271,449.4762 553.971,470.7762" fill="none" id="GPIO-to-RCC" style="stroke:#181818;stroke-width:1;"/><polygon fill="#181818" points="549.69,473.3594,559.4624,472.1345,553.971,470.7762,555.3293,465.2848,549.69,473.3594" style="stroke:#181818;stroke-width:1;stroke-linejoin:miter;stroke-miterlimit:10;"/><text fill="#000000" font-family="sans-serif" font-size="13" lengthAdjust="spacing" textLength="112.709" x="630.41" y="437.1045">enableGPIOClock()</text></g><!--link USART to RCC--><g class="link" data-entity-1="ent0005" data-entity-2="ent0011" data-link-type="dependency" data-source-line="40" id="lnk22"><path d="M391.74,276.8194 C381.77,284.6294 371.81,294.7294 366.41,306.6094 C358.91,323.0994 342.98,348.6294 368.41,392.6094 C397.14,442.2994 458.1554,468.0921 494.4454,479.9021" fill="none" id="USART-to-RCC" style="stroke:#181818;stroke-width:1;"/><polygon fill="#181818" points="499.2,481.4494,491.8796,474.8606,494.4454,479.9021,489.4039,482.4679,499.2,481.4494" style="stroke:#181818;stroke-width:1;stroke-linejoin:miter;stroke-miterlimit:10;"/><text fill="#000000" font-family="sans-serif" font-size="13" lengthAdjust="spacing" textLength="124.2871" x="369.41" y="379.1045">enableAPB1/2Clock()</text></g><!--link USART to GPIO--><g class="link" data-entity-1="ent0005" data-entity-2="ent0004" data-link-type="dependency" data-source-line="41" id="lnk23"><path d="M397.14,276.8094 C381.47,290.7294 366.25,309.9594 379.41,324.6094 C421.08,370.9994 597.44,341.5094 658.41,354.6094 C667.44,356.5494 672.346,357.8399 680.996,360.7199" fill="none" id="USART-to-GPIO" style="stroke:#181818;stroke-width:1;"/><polygon fill="#181818" points="685.74,362.2994,678.4645,355.6611,680.996,360.7199,675.9373,363.2515,685.74,362.2994" style="stroke:#181818;stroke-width:1;stroke-linejoin:miter;stroke-miterlimit:10;"/><text fill="#000000" font-family="sans-serif" font-size="13" lengthAdjust="spacing" textLength="122.8335" x="380.41" y="321.1045">configure TX/RX pins</text></g><!--link SPI to RCC--><g class="link" data-entity-1="ent0006" data-entity-2="ent0011" data-link-type="dependency" data-source-line="42" id="lnk24"><path d="M507.66,276.7594 C505.99,285.6994 504.23,296.6694 503.41,306.6094 C498.42,366.8394 511.2735,433.0479 518.8235,465.6979" fill="none" id="SPI-to-RCC" style="stroke:#181818;stroke-width:1;"/><polygon fill="#181818" points="519.95,470.5694,521.8195,460.8996,518.8235,465.6979,514.0252,462.7019,519.95,470.5694" style="stroke:#181818;stroke-width:1;stroke-linejoin:miter;stroke-miterlimit:10;"/><text fill="#000000" font-family="sans-serif" font-size="13" lengthAdjust="spacing" textLength="124.2871" x="506.41" y="379.1045">enableAPB1/2Clock()</text></g><!--link SPI to GPIO--><g class="link" data-entity-1="ent0006" data-entity-2="ent0004" data-link-type="dependency" data-source-line="43" id="lnk25"><path d="M509.02,276.6594 C508.13,291.4394 509.52,311.9194 521.41,324.6094 C564.02,370.0994 598.27,338.2294 658.41,354.6094 C667.42,357.0694 672.4039,358.5364 681.1239,361.4264" fill="none" id="SPI-to-GPIO" style="stroke:#181818;stroke-width:1;"/><polygon fill="#181818" points="685.87,362.9994,678.5853,356.3711,681.1239,361.4264,676.0686,363.9649,685.87,362.9994" style="stroke:#181818;stroke-width:1;stroke-linejoin:miter;stroke-miterlimit:10;"/><text fill="#000000" font-family="sans-serif" font-size="13" lengthAdjust="spacing" textLength="187.8335" x="522.41" y="321.1045">configure SCK/MOSI/MISO/NSS</text></g><!--link I2C to RCC--><g class="link" data-entity-1="ent0007" data-entity-2="ent0011" data-link-type="dependency" data-source-line="44" id="lnk26"><path d="M1004.46,272.9394 C1021.62,286.4194 1041.11,307.0994 1028.41,324.6094 C1003.15,359.4194 976.36,338.6794 936.41,354.6094 C852.18,388.1894 837.52,412.2094 751.41,440.6094 C680.06,464.1394 597.1365,478.1299 554.6865,484.3899" fill="none" id="I2C-to-RCC" style="stroke:#181818;stroke-width:1;"/><polygon fill="#181818" points="549.74,485.1194,559.2273,487.7636,554.6865,484.3899,558.0601,479.8492,549.74,485.1194" style="stroke:#181818;stroke-width:1;stroke-linejoin:miter;stroke-miterlimit:10;"/><text fill="#000000" font-family="sans-serif" font-size="13" lengthAdjust="spacing" textLength="113.4453" x="937.41" y="379.1045">enableAPB1Clock()</text></g><!--link I2C to GPIO--><g class="link" data-entity-1="ent0007" data-entity-2="ent0004" data-link-type="dependency" data-source-line="45" id="lnk27"><path d="M962.17,273.4794 C940.46,288.1394 905.33,310.3594 872.41,324.6094 C828.26,343.7294 814.39,340.4594 768.41,354.6094 C759.48,357.3594 754.532,358.9344 745.792,361.7944" fill="none" id="I2C-to-GPIO" style="stroke:#181818;stroke-width:1;"/><polygon fill="#181818" points="741.04,363.3494,750.8377,364.352,745.792,361.7944,748.3497,356.7487,741.04,363.3494" style="stroke:#181818;stroke-width:1;stroke-linejoin:miter;stroke-miterlimit:10;"/><text fill="#000000" font-family="sans-serif" font-size="13" lengthAdjust="spacing" textLength="112.7217" x="907.41" y="321.1045">configure SDA/SCL</text></g><!--link EXTI to GPIO--><g class="link" data-entity-1="ent0008" data-entity-2="ent0004" data-link-type="dependency" data-source-line="46" id="lnk28"><path d="M723.51,276.6694 C721.27,297.8894 718.1143,327.9369 715.8643,349.2769" fill="none" id="EXTI-to-GPIO" style="stroke:#181818;stroke-width:1;"/><polygon fill="#181818" points="715.34,354.2494,720.2616,345.7184,715.8643,349.2769,712.3057,344.8796,715.34,354.2494" style="stroke:#181818;stroke-width:1;stroke-linejoin:miter;stroke-miterlimit:10;"/><text fill="#000000" font-family="sans-serif" font-size="13" lengthAdjust="spacing" textLength="54.5645" x="720.41" y="321.1045">port + pin</text></g><!--link EXTI to NVIC--><g class="link" data-entity-1="ent0008" data-entity-2="ent0009" data-link-type="dependency" data-source-line="47" id="lnk29"><path d="M750.91,276.1294 C761.65,284.4294 773.65,295.0594 782.41,306.6094 C793.43,321.1494 799.9011,335.6833 804.9111,349.6433" fill="none" id="EXTI-to-NVIC" style="stroke:#181818;stroke-width:1;"/><polygon fill="#181818" points="806.6,354.3494,807.3248,344.5272,804.9111,349.6433,799.795,347.2295,806.6,354.3494" style="stroke:#181818;stroke-width:1;stroke-linejoin:miter;stroke-miterlimit:10;"/><text fill="#000000" font-family="sans-serif" font-size="13" lengthAdjust="spacing" textLength="70.8081" x="793.41" y="321.1045">enableIRQ()</text></g><!--link NVIC to REGS--><g class="link" data-entity-1="ent0009" data-entity-2="ent0013" data-link-type="dependency" data-source-line="48" id="lnk30"><path d="M798.62,392.8194 C787.14,407.1194 769.75,426.8394 751.41,440.6094 C646.59,519.3294 509.3503,568.6154 407.9603,597.3654" fill="none" id="NVIC-to-REGS" style="stroke:#181818;stroke-width:1;"/><polygon fill="#181818" points="403.15,598.7294,412.8998,600.1224,407.9603,597.3654,410.7174,592.4259,403.15,598.7294" style="stroke:#181818;stroke-width:1;stroke-linejoin:miter;stroke-miterlimit:10;"/></g><!--link SYSTICK to REGS--><g class="link" data-entity-1="ent0010" data-entity-2="ent0013" data-link-type="dependency" data-source-line="49" id="lnk31"><path d="M283.51,260.1494 C222.11,263.6594 98.76,274.6194 72.41,306.6094 C6,387.2294 14.92,454.4094 72.41,541.6094 C90.59,569.1994 114.8915,586.1562 145.2715,599.1262" fill="none" id="SYSTICK-to-REGS" style="stroke:#181818;stroke-width:1;"/><polygon fill="#181818" points="149.87,601.0894,143.1633,593.8768,145.2715,599.1262,140.0222,601.2344,149.87,601.0894" style="stroke:#181818;stroke-width:1;stroke-linejoin:miter;stroke-miterlimit:10;"/></g><!--link GPIO to REGS--><g class="link" data-entity-1="ent0004" data-entity-2="ent0013" data-link-type="dependency" data-source-line="51" id="lnk32"><path d="M685.64,383.4994 C641.13,398.3194 551.75,430.4594 482.41,470.6094 C420.32,506.5594 359.6693,555.7257 319.7593,590.2957" fill="none" id="GPIO-to-REGS" style="stroke:#181818;stroke-width:1;"/><polygon fill="#181818" points="315.98,593.5694,325.4017,590.7003,319.7593,590.2957,320.1639,584.6534,315.98,593.5694" style="stroke:#181818;stroke-width:1;stroke-linejoin:miter;stroke-miterlimit:10;"/></g><!--link USART to REGS--><g class="link" data-entity-1="ent0005" data-entity-2="ent0013" data-link-type="dependency" data-source-line="52" id="lnk33"><path d="M387.69,271.6194 C381.98,273.4994 376.07,275.2494 370.41,276.6094 C320.93,288.4694 176.95,268.3494 143.41,306.6094 C74.56,385.1494 93.84,449.6694 143.41,541.6094 C155.01,563.1394 170.2812,577.5401 190.8012,590.7001" fill="none" id="USART-to-REGS" style="stroke:#181818;stroke-width:1;"/><polygon fill="#181818" points="195.01,593.3994,189.5935,585.1737,190.8012,590.7001,185.2747,591.9078,195.01,593.3994" style="stroke:#181818;stroke-width:1;stroke-linejoin:miter;stroke-miterlimit:10;"/></g><!--link SPI to REGS--><g class="link" data-entity-1="ent0006" data-entity-2="ent0013" data-link-type="dependency" data-source-line="53" id="lnk34"><path d="M489.6,270.1494 C484.11,272.6294 478.15,274.9994 472.41,276.6094 C416.84,292.2294 252.79,263.4994 214.41,306.6094 C144.95,384.6094 182.72,442.0894 214.41,541.6094 C220.39,560.4094 228.9781,574.7043 240.5881,589.6143" fill="none" id="SPI-to-REGS" style="stroke:#181818;stroke-width:1;"/><polygon fill="#181818" points="243.66,593.5594,241.2866,584.0008,240.5881,589.6143,234.9745,588.9158,243.66,593.5594" style="stroke:#181818;stroke-width:1;stroke-linejoin:miter;stroke-miterlimit:10;"/></g><!--link I2C to REGS--><g class="link" data-entity-1="ent0007" data-entity-2="ent0013" data-link-type="dependency" data-source-line="54" id="lnk35"><path d="M1004.55,272.4094 C1016.26,281.0094 1030.26,293.0094 1039.41,306.6094 C1061.1,338.8694 1077.66,360.7294 1055.41,392.6094 C980.28,500.2494 608.9816,575.375 408.1516,608.945" fill="none" id="I2C-to-REGS" style="stroke:#181818;stroke-width:1;"/><polygon fill="#181818" points="403.22,609.7694,412.7563,612.2308,408.1516,608.945,411.4374,604.3403,403.22,609.7694" style="stroke:#181818;stroke-width:1;stroke-linejoin:miter;stroke-miterlimit:10;"/></g><!--link EXTI to REGS--><g class="link" data-entity-1="ent0008" data-entity-2="ent0013" data-link-type="dependency" data-source-line="55" id="lnk36"><path d="M699.83,261.3194 C619.96,269.8894 379.71,296.4094 366.41,306.6094 C276.94,375.2594 271.2041,520.0728 273.7541,588.6028" fill="none" id="EXTI-to-REGS" style="stroke:#181818;stroke-width:1;"/><polygon fill="#181818" points="273.94,593.5994,277.6026,584.4569,273.7541,588.6028,269.6081,584.7543,273.94,593.5994" style="stroke:#181818;stroke-width:1;stroke-linejoin:miter;stroke-miterlimit:10;"/></g><!--link RCC to REGS--><g class="link" data-entity-1="ent0011" data-entity-2="ent0013" data-link-type="dependency" data-source-line="56" id="lnk37"><path d="M499.26,504.6494 C462.26,525.3194 396.2855,562.1616 344.4955,591.0816" fill="none" id="RCC-to-REGS" style="stroke:#181818;stroke-width:1;"/><polygon fill="#181818" points="340.13,593.5194,349.9381,592.6239,344.4955,591.0816,346.0377,585.6391,340.13,593.5194" style="stroke:#181818;stroke-width:1;stroke-linejoin:miter;stroke-miterlimit:10;"/></g><!--link REGS to HW--><g class="link" data-entity-1="ent0013" data-entity-2="ent0015" data-link-type="dependency" data-source-line="58" id="lnk38"><path d="M314.78,666.7794 C343.92,693.8694 379.1374,726.6057 402.1974,748.0357" fill="none" id="REGS-to-HW" style="stroke:#181818;stroke-width:1;"/><polygon fill="#181818" points="405.86,751.4394,401.9903,742.3826,402.1974,748.0357,396.5443,748.2428,405.86,751.4394" style="stroke:#181818;stroke-width:1;stroke-linejoin:miter;stroke-miterlimit:10;"/></g><?plantuml-src XLJTRjem5BxFKnnrDo1-qh5DhNenAGHeezAM4TPrKgNA92xr27PacrPechI7s1FkINQEtHHIDWsasETynz_vjQsm1OU15ezSmvXjy1lfx45Odjcrvl3xvozObs0LF1vsZxk7q4XwSJC8p5B8accsWZdBbWkjrZAFLQ4ql1aDwRzZeP6BoGNw-Hu0_lfx9pwCej78OqhdN3_hU_7Hg7_iz97Mwgck_X449JAn1OU3g2mBaJ4hbFHP73XVMy-x5YQybOtnS03pGiXb6_fhQvLi3MzcIVjMVawZwGmAfKhAh0tf90anPyZvIfdc0J03qMHIyruhNoDkjTgWvj_GTqTfmQNbUNCldjD9SkN8Q5E7N0GESxiwYE4u2DSwW34w0DSwG7avX3PrwF8wyOTeyyhFnin4jlI-lgQp93wl6qnZVnJNMZ6cV26CfJdACcxCFzenuLgK3rop0hNF1upLwymQR0xLv0w91lp-phPz6RRohSJaTs3CU4VgThk-IzFXQLgBx8pf_8bflXTCEhjurnkzFpowFeLKu9WewHZElj1vx3PqEXzzeoh1TwQIg1dLdkfVxLt50pheH2mLd02NR5vmKiQ5ofQDPk17xhL5DEc_3NlxDexk1338Ux6WEpgx2QStK0ff0WpaFpoLnHvB6f-75rTf4buawLLucQO1JVtVo2gg2j-d6aHX6ey3Id_NebJQGeiYtK8qUI_ioVGJyZgLSqmTV1w-hMAddYJk5C-PLnKWuIK34bvSEecIsbBIrudOya0gos6ky55OWRht5W2N2iwYSHkaWl7OlOiSB_q6SdVvtK2nt8HF6jzE0ojyBVIcis9boNC7-Y4ta0kQl683ZuA1tNZOZpuMI4WowWPSva1n17y0?></g></svg>