<svg xmlns="http://www.w3.org/2000/svg" xmlns:xlink="http://www.w3.org/1999/xlink" contentStyleType="text/css" data-diagram-type="CLASS" height="604px" preserveAspectRatio="none" style="width:1008px;height:604px;background:#FEFEFE;" version="1.1" viewBox="0 0 1008 604" width="1008px" zoomAndPan="magnify"><?plantuml 1.2026.5?><defs/><g><rect fill="#FEFEFE" height="604" style="stroke:none;stroke-width:1;" width="1008" x="0" y="0"/><g class="title" data-source-line="1"><text fill="#000000" font-family="sans-serif" font-size="14" font-weight="700" lengthAdjust="spacing" textLength="198.8506" x="401.0933" y="24.5332">GPIO Driver &#8212; Class Diagram</text></g><!--class GPIO_Port--><g class="entity" data-qualified-name="GPIO_Port" data-source-line="11" id="ent0001"><rect fill="#F5FAFF" height="206.4844" rx="2.5" ry="2.5" style="stroke:#2C7FB8;stroke-width:0.5;" width="100.4688" x="7" y="382.6094"/><ellipse cx="22" cy="398.6094" fill="#EB937F" rx="11" ry="11" style="stroke:#181818;stroke-width:1;"/><path d="M20.8594,399.4063 L20.8594,401.9063 L25.1875,401.9063 L25.1875,400.9844 Q25.1875,400.375 25.4219,400.1094 Q25.6719,399.8438 26.0469,399.8438 Q26.4219,399.8438 26.6563,400.1094 Q26.8906,400.375 26.8906,400.9844 L26.8906,403.6094 L18.8906,403.6094 Q18.2656,403.6094 18,403.375 Q17.75,403.1406 17.75,402.75 Q17.75,402.375 18.0156,402.1406 Q18.2813,401.9063 18.8906,401.9063 L19.1563,401.9063 L19.1563,395.25 L18.8906,395.25 Q18.2656,395.25 18,395.0156 Q17.75,394.7813 17.75,394.3906 Q17.75,394.0156 18,393.7813 Q18.2656,393.5469 18.8906,393.5469 L26.5156,393.5469 L26.5156,396.1406 Q26.5156,396.75 26.2813,397.0156 Q26.0625,397.2656 25.6719,397.2656 Q25.2969,397.2656 25.0625,397.0156 Q24.8281,396.75 24.8281,396.1406 L24.8281,395.25 L20.8594,395.25 L20.8594,397.7031 L22.3438,397.7031 Q22.3438,397.0469 22.4688,396.8594 Q22.7344,396.4531 23.2031,396.4531 Q23.5781,396.4531 23.8125,396.7188 Q24.0469,396.9688 24.0469,397.5781 L24.0469,399.5469 Q24.0469,400.0938 23.9219,400.2813 Q23.6563,400.6719 23.2031,400.6719 Q22.7344,400.6719 22.4688,400.2656 Q22.3438,400.0781 22.3438,399.4063 L20.8594,399.4063 Z " fill="#000000"/><text fill="#000000" font-family="sans-serif" font-size="14" lengthAdjust="spacing" textLength="68.4688" x="36" y="404.3379">GPIO_Port</text><line style="stroke:#2C7FB8;stroke-width:0.5;" x1="8" x2="106.4688" y1="414.6094" y2="414.6094"/><text fill="#000000" font-family="sans-serif" font-size="14" lengthAdjust="spacing" textLength="48.2275" x="13" y="433.1426">PORTA</text><text fill="#000000" font-family="sans-serif" font-size="14" lengthAdjust="spacing" textLength="48.2275" x="13" y="450.752">PORTB</text><text fill="#000000" font-family="sans-serif" font-size="14" lengthAdjust="spacing" textLength="49" x="13" y="468.3613">PORTC</text><text fill="#000000" font-family="sans-serif" font-size="14" lengthAdjust="spacing" textLength="49" x="13" y="485.9707">PORTD</text><text fill="#000000" font-family="sans-serif" font-size="14" lengthAdjust="spacing" textLength="48.2275" x="13" y="503.5801">PORTE</text><text fill="#000000" font-family="sans-serif" font-size="14" lengthAdjust="spacing" textLength="47.4414" x="13" y="521.1895">PORTF</text><text fill="#000000" font-family="sans-serif" font-size="14" lengthAdjust="spacing" textLength="49.7793" x="13" y="538.7988">PORTG</text><text fill="#000000" font-family="sans-serif" font-size="14" lengthAdjust="spacing" textLength="49" x="13" y="556.4082">PORTH</text><text fill="#000000" font-family="sans-serif" font-size="14" lengthAdjust="spacing" textLength="42.7793" x="13" y="574.0176">PORTI</text><line style="stroke:#2C7FB8;stroke-width:0.5;" x1="8" x2="106.4688" y1="581.0938" y2="581.0938"/></g><!--class GPIO_Mode--><g class="entity" data-qualified-name="GPIO_Mode" data-source-line="23" id="ent0002"><rect fill="#F5FAFF" height="118.4375" rx="2.5" ry="2.5" style="stroke:#2C7FB8;stroke-width:0.5;" width="109.8135" x="142" y="426.6094"/><ellipse cx="157" cy="442.6094" fill="#EB937F" rx="11" ry="11" style="stroke:#181818;stroke-width:1;"/><path d="M155.8594,443.4063 L155.8594,445.9063 L160.1875,445.9063 L160.1875,444.9844 Q160.1875,444.375 160.4219,444.1094 Q160.6719,443.8438 161.0469,443.8438 Q161.4219,443.8438 161.6563,444.1094 Q161.8906,444.375 161.8906,444.9844 L161.8906,447.6094 L153.8906,447.6094 Q153.2656,447.6094 153,447.375 Q152.75,447.1406 152.75,446.75 Q152.75,446.375 153.0156,446.1406 Q153.2813,445.9063 153.8906,445.9063 L154.1563,445.9063 L154.1563,439.25 L153.8906,439.25 Q153.2656,439.25 153,439.0156 Q152.75,438.7813 152.75,438.3906 Q152.75,438.0156 153,437.7813 Q153.2656,437.5469 153.8906,437.5469 L161.5156,437.5469 L161.5156,440.1406 Q161.5156,440.75 161.2813,441.0156 Q161.0625,441.2656 160.6719,441.2656 Q160.2969,441.2656 160.0625,441.0156 Q159.8281,440.75 159.8281,440.1406 L159.8281,439.25 L155.8594,439.25 L155.8594,441.7031 L157.3438,441.7031 Q157.3438,441.0469 157.4688,440.8594 Q157.7344,440.4531 158.2031,440.4531 Q158.5781,440.4531 158.8125,440.7188 Q159.0469,440.9688 159.0469,441.5781 L159.0469,443.5469 Q159.0469,444.0938 158.9219,444.2813 Q158.6563,444.6719 158.2031,444.6719 Q157.7344,444.6719 157.4688,444.2656 Q157.3438,444.0781 157.3438,443.4063 L155.8594,443.4063 Z " fill="#000000"/><text fill="#000000" font-family="sans-serif" font-size="14" lengthAdjust="spacing" textLength="77.8135" x="171" y="448.3379">GPIO_Mode</text><line style="stroke:#2C7FB8;stroke-width:0.5;" x1="143" x2="250.8135" y1="458.6094" y2="458.6094"/><text fill="#000000" font-family="sans-serif" font-size="14" lengthAdjust="spacing" textLength="42" x="148" y="477.1426">INPUT</text><text fill="#000000" font-family="sans-serif" font-size="14" lengthAdjust="spacing" textLength="57.5518" x="148" y="494.752">OUTPUT</text><text fill="#000000" font-family="sans-serif" font-size="14" lengthAdjust="spacing" textLength="82.4619" x="148" y="512.3613">ALTERNATE</text><text fill="#000000" font-family="sans-serif" font-size="14" lengthAdjust="spacing" textLength="58.3516" x="148" y="529.9707">ANALOG</text><line style="stroke:#2C7FB8;stroke-width:0.5;" x1="143" x2="250.8135" y1="537.0469" y2="537.0469"/></g><!--class GPIO_OutputType--><g class="entity" data-qualified-name="GPIO_OutputType" data-source-line="30" id="ent0003"><rect fill="#F5FAFF" height="83.2188" rx="2.5" ry="2.5" style="stroke:#2C7FB8;stroke-width:0.5;" width="147.9443" x="287" y="444.1094"/><ellipse cx="302" cy="460.1094" fill="#EB937F" rx="11" ry="11" style="stroke:#181818;stroke-width:1;"/><path d="M300.8594,460.9063 L300.8594,463.4063 L305.1875,463.4063 L305.1875,462.4844 Q305.1875,461.875 305.4219,461.6094 Q305.6719,461.3438 306.0469,461.3438 Q306.4219,461.3438 306.6563,461.6094 Q306.8906,461.875 306.8906,462.4844 L306.8906,465.1094 L298.8906,465.1094 Q298.2656,465.1094 298,464.875 Q297.75,464.6406 297.75,464.25 Q297.75,463.875 298.0156,463.6406 Q298.2813,463.4063 298.8906,463.4063 L299.1563,463.4063 L299.1563,456.75 L298.8906,456.75 Q298.2656,456.75 298,456.5156 Q297.75,456.2813 297.75,455.8906 Q297.75,455.5156 298,455.2813 Q298.2656,455.0469 298.8906,455.0469 L306.5156,455.0469 L306.5156,457.6406 Q306.5156,458.25 306.2813,458.5156 Q306.0625,458.7656 305.6719,458.7656 Q305.2969,458.7656 305.0625,458.5156 Q304.8281,458.25 304.8281,457.6406 L304.8281,456.75 L300.8594,456.75 L300.8594,459.2031 L302.3438,459.2031 Q302.3438,458.5469 302.4688,458.3594 Q302.7344,457.9531 303.2031,457.9531 Q303.5781,457.9531 303.8125,458.2188 Q304.0469,458.4688 304.0469,459.0781 L304.0469,461.0469 Q304.0469,461.5938 303.9219,461.7813 Q303.6563,462.1719 303.2031,462.1719 Q302.7344,462.1719 302.4688,461.7656 Q302.3438,461.5781 302.3438,460.9063 L300.8594,460.9063 Z " fill="#000000"/><text fill="#000000" font-family="sans-serif" font-size="14" lengthAdjust="spacing" textLength="115.9443" x="316" y="465.8379">GPIO_OutputType</text><line style="stroke:#2C7FB8;stroke-width:0.5;" x1="288" x2="433.9443" y1="476.1094" y2="476.1094"/><text fill="#000000" font-family="sans-serif" font-size="14" lengthAdjust="spacing" textLength="81.7031" x="293" y="494.6426">PUSH_PULL</text><text fill="#000000" font-family="sans-serif" font-size="14" lengthAdjust="spacing" textLength="91.0205" x="293" y="512.252">OPEN_DRAIN</text><line style="stroke:#2C7FB8;stroke-width:0.5;" x1="288" x2="433.9443" y1="519.3281" y2="519.3281"/></g><!--class GPIO_Speed--><g class="entity" data-qualified-name="GPIO_Speed" data-source-line="35" id="ent0004"><rect fill="#F5FAFF" height="118.4375" rx="2.5" ry="2.5" style="stroke:#2C7FB8;stroke-width:0.5;" width="115.2754" x="470.5" y="426.6094"/><ellipse cx="485.5" cy="442.6094" fill="#EB937F" rx="11" ry="11" style="stroke:#181818;stroke-width:1;"/><path d="M484.3594,443.4063 L484.3594,445.9063 L488.6875,445.9063 L488.6875,444.9844 Q488.6875,444.375 488.9219,444.1094 Q489.1719,443.8438 489.5469,443.8438 Q489.9219,443.8438 490.1563,444.1094 Q490.3906,444.375 490.3906,444.9844 L490.3906,447.6094 L482.3906,447.6094 Q481.7656,447.6094 481.5,447.375 Q481.25,447.1406 481.25,446.75 Q481.25,446.375 481.5156,446.1406 Q481.7813,445.9063 482.3906,445.9063 L482.6563,445.9063 L482.6563,439.25 L482.3906,439.25 Q481.7656,439.25 481.5,439.0156 Q481.25,438.7813 481.25,438.3906 Q481.25,438.0156 481.5,437.7813 Q481.7656,437.5469 482.3906,437.5469 L490.0156,437.5469 L490.0156,440.1406 Q490.0156,440.75 489.7813,441.0156 Q489.5625,441.2656 489.1719,441.2656 Q488.7969,441.2656 488.5625,441.0156 Q488.3281,440.75 488.3281,440.1406 L488.3281,439.25 L484.3594,439.25 L484.3594,441.7031 L485.8438,441.7031 Q485.8438,441.0469 485.9688,440.8594 Q486.2344,440.4531 486.7031,440.4531 Q487.0781,440.4531 487.3125,440.7188 Q487.5469,440.9688 487.5469,441.5781 L487.5469,443.5469 Q487.5469,444.0938 487.4219,444.2813 Q487.1563,444.6719 486.7031,444.6719 Q486.2344,444.6719 485.9688,444.2656 Q485.8438,444.0781 485.8438,443.4063 L484.3594,443.4063 Z " fill="#000000"/><text fill="#000000" font-family="sans-serif" font-size="14" lengthAdjust="spacing" textLength="83.2754" x="499.5" y="448.3379">GPIO_Speed</text><line style="stroke:#2C7FB8;stroke-width:0.5;" x1="471.5" x2="584.7754" y1="458.6094" y2="458.6094"/><text fill="#000000" font-family="sans-serif" font-size="14" lengthAdjust="spacing" textLength="31.8896" x="476.5" y="477.1426">LOW</text><text fill="#000000" font-family="sans-serif" font-size="14" lengthAdjust="spacing" textLength="56.7725" x="476.5" y="494.752">MEDIUM</text><text fill="#000000" font-family="sans-serif" font-size="14" lengthAdjust="spacing" textLength="35.7793" x="476.5" y="512.3613">FAST</text><text fill="#000000" font-family="sans-serif" font-size="14" lengthAdjust="spacing" textLength="35" x="476.5" y="529.9707">HIGH</text><line style="stroke:#2C7FB8;stroke-width:0.5;" x1="471.5" x2="584.7754" y1="537.0469" y2="537.0469"/></g><!--class GPIO_Pull--><g class="entity" data-qualified-name="GPIO_Pull" data-source-line="42" id="ent0005"><rect fill="#F5FAFF" height="100.8281" rx="2.5" ry="2.5" style="stroke:#2C7FB8;stroke-width:0.5;" width="99.1309" x="620.5" y="435.1094"/><ellipse cx="635.9469" cy="451.1094" fill="#EB937F" rx="11" ry="11" style="stroke:#181818;stroke-width:1;"/><path d="M634.8063,451.9063 L634.8063,454.4063 L639.1344,454.4063 L639.1344,453.4844 Q639.1344,452.875 639.3688,452.6094 Q639.6188,452.3438 639.9938,452.3438 Q640.3688,452.3438 640.6032,452.6094 Q640.8375,452.875 640.8375,453.4844 L640.8375,456.1094 L632.8375,456.1094 Q632.2125,456.1094 631.9469,455.875 Q631.6969,455.6406 631.6969,455.25 Q631.6969,454.875 631.9625,454.6406 Q632.2282,454.4063 632.8375,454.4063 L633.1032,454.4063 L633.1032,447.75 L632.8375,447.75 Q632.2125,447.75 631.9469,447.5156 Q631.6969,447.2813 631.6969,446.8906 Q631.6969,446.5156 631.9469,446.2813 Q632.2125,446.0469 632.8375,446.0469 L640.4625,446.0469 L640.4625,448.6406 Q640.4625,449.25 640.2282,449.5156 Q640.0094,449.7656 639.6188,449.7656 Q639.2438,449.7656 639.0094,449.5156 Q638.775,449.25 638.775,448.6406 L638.775,447.75 L634.8063,447.75 L634.8063,450.2031 L636.2907,450.2031 Q636.2907,449.5469 636.4157,449.3594 Q636.6813,448.9531 637.15,448.9531 Q637.525,448.9531 637.7594,449.2188 Q637.9938,449.4688 637.9938,450.0781 L637.9938,452.0469 Q637.9938,452.5938 637.8688,452.7813 Q637.6032,453.1719 637.15,453.1719 Q636.6813,453.1719 636.4157,452.7656 Q636.2907,452.5781 636.2907,451.9063 L634.8063,451.9063 Z " fill="#000000"/><text fill="#000000" font-family="sans-serif" font-size="14" lengthAdjust="spacing" textLength="66.1377" x="650.0462" y="456.8379">GPIO_Pull</text><line style="stroke:#2C7FB8;stroke-width:0.5;" x1="621.5" x2="718.6309" y1="467.1094" y2="467.1094"/><text fill="#000000" font-family="sans-serif" font-size="14" lengthAdjust="spacing" textLength="40.4482" x="626.5" y="485.6426">NONE</text><text fill="#000000" font-family="sans-serif" font-size="14" lengthAdjust="spacing" textLength="62.2549" x="626.5" y="503.252">PULL_UP</text><text fill="#000000" font-family="sans-serif" font-size="14" lengthAdjust="spacing" textLength="87.1309" x="626.5" y="520.8613">PULL_DOWN</text><line style="stroke:#2C7FB8;stroke-width:0.5;" x1="621.5" x2="718.6309" y1="527.9375" y2="527.9375"/></g><!--class RCC_Driver--><g class="entity" data-qualified-name="RCC_Driver" data-source-line="48" id="ent0006"><rect fill="#F5FAFF" height="100.8281" rx="2.5" ry="2.5" style="stroke:#2C7FB8;stroke-width:0.5;" width="238.0371" x="755" y="435.1094"/><ellipse cx="832.0444" cy="451.1094" fill="#ADD1B2" rx="11" ry="11" style="stroke:#181818;stroke-width:1;"/><path d="M834.8101,446.9844 Q834.9663,446.7656 835.1538,446.6563 Q835.3413,446.5469 835.5601,446.5469 Q835.9351,446.5469 836.1694,446.8125 Q836.4038,447.0625 836.4038,447.6719 L836.4038,449.125 Q836.4038,449.7344 836.1694,450 Q835.9351,450.2656 835.5601,450.2656 Q835.2163,450.2656 835.0132,450.0625 Q834.8101,449.875 834.7007,449.3594 Q834.6538,449 834.4663,448.8125 Q834.1382,448.4375 833.5288,448.2188 Q832.9194,448 832.2944,448 Q831.5288,448 830.8882,448.3281 Q830.2632,448.6563 829.7632,449.4063 Q829.2788,450.1563 829.2788,451.1875 L829.2788,452.2813 Q829.2788,453.5156 830.1694,454.3438 Q831.0601,455.1563 832.6538,455.1563 Q833.5913,455.1563 834.2476,454.9063 Q834.6382,454.75 835.0601,454.3125 Q835.3257,454.0469 835.4663,453.9688 Q835.6226,453.8906 835.8257,453.8906 Q836.1538,453.8906 836.4038,454.1563 Q836.6694,454.4063 836.6694,454.75 Q836.6694,455.0938 836.3257,455.5 Q835.8257,456.0781 835.0288,456.4063 Q833.9507,456.8594 832.6538,456.8594 Q831.1382,456.8594 829.9351,456.2344 Q828.9507,455.7344 828.2632,454.6719 Q827.5757,453.5938 827.5757,452.3125 L827.5757,451.1563 Q827.5757,449.8281 828.1851,448.6875 Q828.8101,447.5313 829.9038,446.9219 Q830.9976,446.2969 832.2319,446.2969 Q832.9663,446.2969 833.6069,446.4688 Q834.2632,446.625 834.8101,446.9844 Z " fill="#000000"/><text fill="#000000" font-family="sans-serif" font-size="14" lengthAdjust="spacing" textLength="75.4482" x="852.5444" y="456.8379">RCC_Driver</text><line style="stroke:#2C7FB8;stroke-width:0.5;" x1="756" x2="992.0371" y1="467.1094" y2="467.1094"/><line style="stroke:#2C7FB8;stroke-width:0.5;" x1="756" x2="992.0371" y1="475.1094" y2="475.1094"/><text fill="#000000" font-family="sans-serif" font-size="14" lengthAdjust="spacing" textLength="226.0371" x="761" y="493.6426">+enableGPIOClock(GPIO_Port port)</text><text fill="#000000" font-family="sans-serif" font-size="14" lengthAdjust="spacing" textLength="142.0166" x="761" y="511.252">+enableAPB1Clock(...)</text><text fill="#000000" font-family="sans-serif" font-size="14" lengthAdjust="spacing" textLength="142.0166" x="761" y="528.8613">+enableAPB2Clock(...)</text></g><!--class GPIO--><g class="entity" data-qualified-name="GPIO" data-source-line="54" id="ent0007"><rect fill="#F5FAFF" height="259.3125" rx="2.5" ry="2.5" style="stroke:#2C7FB8;stroke-width:0.5;" width="304.9746" x="291.5" y="45.6094"/><ellipse cx="422.2339" cy="61.6094" fill="#ADD1B2" rx="11" ry="11" style="stroke:#181818;stroke-width:1;"/><path d="M424.9995,57.4844 Q425.1558,57.2656 425.3433,57.1563 Q425.5308,57.0469 425.7495,57.0469 Q426.1245,57.0469 426.3589,57.3125 Q426.5933,57.5625 426.5933,58.1719 L426.5933,59.625 Q426.5933,60.2344 426.3589,60.5 Q426.1245,60.7656 425.7495,60.7656 Q425.4058,60.7656 425.2026,60.5625 Q424.9995,60.375 424.8901,59.8594 Q424.8433,59.5 424.6558,59.3125 Q424.3276,58.9375 423.7183,58.7188 Q423.1089,58.5 422.4839,58.5 Q421.7183,58.5 421.0776,58.8281 Q420.4526,59.1563 419.9526,59.9063 Q419.4683,60.6563 419.4683,61.6875 L419.4683,62.7813 Q419.4683,64.0156 420.3589,64.8438 Q421.2495,65.6563 422.8433,65.6563 Q423.7808,65.6563 424.437,65.4063 Q424.8276,65.25 425.2495,64.8125 Q425.5151,64.5469 425.6558,64.4688 Q425.812,64.3906 426.0151,64.3906 Q426.3433,64.3906 426.5933,64.6563 Q426.8589,64.9063 426.8589,65.25 Q426.8589,65.5938 426.5151,66 Q426.0151,66.5781 425.2183,66.9063 Q424.1401,67.3594 422.8433,67.3594 Q421.3276,67.3594 420.1245,66.7344 Q419.1401,66.2344 418.4526,65.1719 Q417.7651,64.0938 417.7651,62.8125 L417.7651,61.6563 Q417.7651,60.3281 418.3745,59.1875 Q418.9995,58.0313 420.0933,57.4219 Q421.187,56.7969 422.4214,56.7969 Q423.1558,56.7969 423.7964,56.9688 Q424.4526,57.125 424.9995,57.4844 Z " fill="#000000"/><text fill="#000000" font-family="sans-serif" font-size="14" lengthAdjust="spacing" textLength="35.0068" x="442.7339" y="67.3379">GPIO</text><line style="stroke:#2C7FB8;stroke-width:0.5;" x1="292.5" x2="595.4746" y1="77.6094" y2="77.6094"/><text fill="#000000" font-family="sans-serif" font-size="14" lengthAdjust="spacing" textLength="155.6201" x="297.5" y="96.1426">-mPort : Gpio_RegDef_t*</text><text fill="#000000" font-family="sans-serif" font-size="14" lengthAdjust="spacing" textLength="90.2617" x="297.5" y="113.752">-mPin : uint8_t</text><text fill="#000000" font-family="sans-serif" font-size="14" lengthAdjust="spacing" textLength="127.5518" x="297.5" y="131.3613">-mRcc : RCC_Driver</text><line style="stroke:#2C7FB8;stroke-width:1;" x1="292.5" x2="595.4746" y1="138.4375" y2="138.4375"/><text fill="#000000" font-family="sans-serif" font-size="14" lengthAdjust="spacing" textLength="221.375" x="297.5" y="156.9707">+GPIO(GPIO_Port port, uint8_t pin)</text><text fill="#000000" font-family="sans-serif" font-size="14" lengthAdjust="spacing" textLength="225.2715" x="297.5" y="174.5801">+setMode(GPIO_Mode mode) : void</text><text fill="#000000" font-family="sans-serif" font-size="14" lengthAdjust="spacing" textLength="292.9746" x="297.5" y="192.1895">+setOutputType(GPIO_OutputType type) : void</text><text fill="#000000" font-family="sans-serif" font-size="14" lengthAdjust="spacing" textLength="239.3193" x="297.5" y="209.7988">+setSpeed(GPIO_Speed speed) : void</text><text fill="#000000" font-family="sans-serif" font-size="14" lengthAdjust="spacing" textLength="188.6924" x="297.5" y="227.4082">+setPull(GPIO_Pull pull) : void</text><text fill="#000000" font-family="sans-serif" font-size="14" lengthAdjust="spacing" textLength="240.8574" x="297.5" y="245.0176">+setAlternateFunction(uint8_t af) : void</text><text fill="#000000" font-family="sans-serif" font-size="14" lengthAdjust="spacing" textLength="145.1201" x="297.5" y="262.627">+write(bool state) : void</text><text fill="#000000" font-family="sans-serif" font-size="14" lengthAdjust="spacing" textLength="83.6582" x="297.5" y="280.2363">+read() : bool</text><text fill="#000000" font-family="sans-serif" font-size="14" lengthAdjust="spacing" textLength="92.9961" x="297.5" y="297.8457">+toggle() : void</text></g><g class="entity" data-qualified-name="GMN14" data-source-line="78" id="ent0015"><path d="M632,113.1094 L632,171.1094 L596.77,175.1094 L632,179.1094 L632,237.5703 A0,0 0 0 0 632,237.5703 L859.6035,237.5703 A0,0 0 0 0 859.6035,237.5703 L859.6035,123.1094 L849.6035,113.1094 L632,113.1094 A0,0 0 0 0 632,113.1094" fill="#FEFFDD" style="stroke:#181818;stroke-width:0.5;"/><path d="M849.6035,113.1094 L849.6035,123.1094 L859.6035,123.1094 L849.6035,113.1094" fill="#FEFFDD" style="stroke:#181818;stroke-width:0.5;"/><text fill="#000000" font-family="sans-serif" font-size="13" lengthAdjust="spacing" textLength="173.0181" x="638" y="131.6045">Constructor enables the port's</text><text fill="#000000" font-family="sans-serif" font-size="13" lengthAdjust="spacing" textLength="184.9453" x="638" y="147.9561">peripheral clock via RCC_Driver</text><text fill="#000000" font-family="sans-serif" font-size="13" lengthAdjust="spacing" textLength="156.0762" x="638" y="164.3076">before any register access.</text><text fill="#000000" font-family="sans-serif" font-size="13" lengthAdjust="spacing" textLength="3.6118" x="638" y="180.6592">&#160;</text><text fill="#000000" font-family="sans-serif" font-size="13" lengthAdjust="spacing" textLength="180.6226" x="638" y="197.0107">GPIO_Port is an enum class &#8212;</text><text fill="#000000" font-family="sans-serif" font-size="13" lengthAdjust="spacing" textLength="200.1099" x="638" y="213.3623">construct with GPIO_Port::PORTx,</text><text fill="#000000" font-family="sans-serif" font-size="13" lengthAdjust="spacing" textLength="206.6035" x="638" y="229.7139">NOT the raw GPIOx register macro.</text></g><!--reverse link GPIO to RCC_Driver--><g class="link" data-entity-1="ent0007" data-entity-2="ent0006" data-link-type="composition" data-source-line="70" id="lnk8"><path codeLine="70" d="M606.7209,299.5716 C612.4609,303.6516 608.38,300.7094 614,304.6094 C667.2,341.4894 683.67,345.9194 737,382.6094 C761.06,399.1594 786.89,418.0794 809.56,435.0894" fill="none" id="GPIO-backto-RCC_Driver" style="stroke:#2C7FB8;stroke-width:1;"/><polygon fill="#2C7FB8" points="596.94,292.6194,599.513,299.3558,606.7209,299.5716,604.1479,292.8352,596.94,292.6194" style="stroke:#2C7FB8;stroke-width:1;stroke-linejoin:miter;stroke-miterlimit:10;"/><text fill="#000000" font-family="sans-serif" font-size="13" lengthAdjust="spacing" textLength="119.9517" x="692" y="349.1045">owns / enables clock</text><text fill="#000000" font-family="sans-serif" font-size="13" lengthAdjust="spacing" textLength="7.23" x="604.5237" y="295.4198">1</text><text fill="#000000" font-family="sans-serif" font-size="13" lengthAdjust="spacing" textLength="7.23" x="793.0195" y="424.3919">1</text></g><!--link GPIO to GPIO_Port--><g class="link" data-entity-1="ent0007" data-entity-2="ent0001" data-link-type="dependency" data-source-line="71" id="lnk9"><path codeLine="71" d="M291.25,255.6294 C234.57,289.7994 172.37,333.2694 124,382.6094 C118.14,388.5894 115.5896,391.2182 110.2296,398.0382" fill="none" id="GPIO-to-GPIO_Port" style="stroke:#2C7FB8;stroke-width:1;stroke-dasharray:7,7;"/><polygon fill="#2C7FB8" points="107.14,401.9694,115.8463,397.3649,110.2296,398.0382,109.5564,392.4215,107.14,401.9694" style="stroke:#2C7FB8;stroke-width:1;stroke-linejoin:miter;stroke-miterlimit:10;"/><text fill="#000000" font-family="sans-serif" font-size="13" lengthAdjust="spacing" textLength="93.9326" x="171" y="349.1045">constructed with</text></g><!--link GPIO to GPIO_Mode--><g class="link" data-entity-1="ent0007" data-entity-2="ent0002" data-link-type="dependency" data-source-line="72" id="lnk10"><path codeLine="72" d="M332.06,304.6494 C310.71,330.1494 288.85,356.9694 269,382.6094 C258.19,396.5794 249.8492,407.9086 239.5692,422.4286" fill="none" id="GPIO-to-GPIO_Mode" style="stroke:#2C7FB8;stroke-width:1;stroke-dasharray:7,7;"/><polygon fill="#2C7FB8" points="236.68,426.5094,245.1451,421.4753,239.5692,422.4286,238.6158,416.8526,236.68,426.5094" style="stroke:#2C7FB8;stroke-width:1;stroke-linejoin:miter;stroke-miterlimit:10;"/><text fill="#000000" font-family="sans-serif" font-size="13" lengthAdjust="spacing" textLength="27.46" x="307" y="349.1045">uses</text></g><!--link GPIO to GPIO_OutputType--><g class="link" data-entity-1="ent0007" data-entity-2="ent0003" data-link-type="dependency" data-source-line="73" id="lnk11"><path codeLine="73" d="M409.4,304.7094 C395.97,354.6394 382.8387,403.431 373.2687,439.011" fill="none" id="GPIO-to-GPIO_OutputType" style="stroke:#2C7FB8;stroke-width:1;stroke-dasharray:7,7;"/><polygon fill="#2C7FB8" points="371.97,443.8394,378.1704,436.1872,373.2687,439.011,370.4449,434.1093,371.97,443.8394" style="stroke:#2C7FB8;stroke-width:1;stroke-linejoin:miter;stroke-miterlimit:10;"/><text fill="#000000" font-family="sans-serif" font-size="13" lengthAdjust="spacing" textLength="27.46" x="402" y="349.1045">uses</text></g><!--link GPIO to GPIO_Speed--><g class="link" data-entity-1="ent0007" data-entity-2="ent0004" data-link-type="dependency" data-source-line="74" id="lnk12"><path codeLine="74" d="M479.02,304.7094 C490.54,347.0294 501.4769,387.1849 510.8369,421.5749" fill="none" id="GPIO-to-GPIO_Speed" style="stroke:#2C7FB8;stroke-width:1;stroke-dasharray:7,7;"/><polygon fill="#2C7FB8" points="512.15,426.3994,513.646,416.6648,510.8369,421.5749,505.9268,418.7658,512.15,426.3994" style="stroke:#2C7FB8;stroke-width:1;stroke-linejoin:miter;stroke-miterlimit:10;"/><text fill="#000000" font-family="sans-serif" font-size="13" lengthAdjust="spacing" textLength="27.46" x="493" y="349.1045">uses</text></g><!--link GPIO to GPIO_Pull--><g class="link" data-entity-1="ent0007" data-entity-2="ent0005" data-link-type="dependency" data-source-line="75" id="lnk13"><path codeLine="75" d="M545.38,304.6994 C564.85,330.2594 584.83,357.0794 603,382.6094 C614.98,399.4394 624.8191,414.051 635.7991,430.891" fill="none" id="GPIO-to-GPIO_Pull" style="stroke:#2C7FB8;stroke-width:1;stroke-dasharray:7,7;"/><polygon fill="#2C7FB8" points="638.53,435.0794,636.9651,425.3556,635.7991,430.891,630.2637,429.7251,638.53,435.0794" style="stroke:#2C7FB8;stroke-width:1;stroke-linejoin:miter;stroke-miterlimit:10;"/><text fill="#000000" font-family="sans-serif" font-size="13" lengthAdjust="spacing" textLength="27.46" x="579" y="349.1045">uses</text></g><?plantuml-src RLJTRfim5BxdAQpkOhHhs5ffMfMBIGH2WfG2oezwYHnmY5LY8ziqRQT9UuWzuPvankO_JIHpTBxldEDpFji2Yno1HUI7m6Nu1J7mxyzVuEIGS-1Yc35uCWp-Z4a1fGcI2h25O7XV2kGdb6pmEmBVUfGzJ9upHakIEZId37povjL_d0JyCe3ypIxOtptRypH6MOfOxRztVdYp1-Mt6QFdeVktOI1IdbGZSKIPgDD7uNfhjzQijPpMSbjhtbfUQorQQzbQ_h3Q8qrHNSqFejrMMU5ksvZsQZjV1tQTtWxiLRWOPWXBKPHY-rOqUQBTPXb7kzLAvuhcGUokRJyOXcqAXD8wOXK-gU_ZtFLtZyhqx8tUmD9VB4S3AlEy3Wp2eEvRbejtKMUxuPCggDLQEqvS7n0T-0KHkCzHbS_9QV9iTgClv7BT9zdHx4wJBCiQ8_Szf2sd3gGkD3cff5EmA32DroXpqI4MDms6YOHAJCH3B6hVEacahzknTazqtIhpQA-tJJmeCActnv6eX3KxYKzokPPvNoXEMquddJcMKiZbWgyqCtloyMgze5K2cPrKXLmkE7Ok42DG8AyaYS2Kc4qNy30adnaMoDnJcWCkPC0GPGYcPkMg2DebQ9Rbo6nvKXOboDNT5RYPJDItTo2cW9u91r-1rfJB2ouLrI6MzRDtAQT0lXXSi38HilSp5iSHIqrQwiaH7o6zoNw8wt5-2AaPreX1g420uUme03qeNFRiDBkIJqhJX3WYTJe-Sqae4CF54J6Ow-R02uR34xP71yeGWEGDC9HXBiK1C4aGvvOXuMu6c4iIK9THdtNvu4f2EnWrbeu_dLPlpkkjKTtLhTeLWsU5ltQLJZ1Xr99NF0LLWyP_?></g></svg>