<svg xmlns="http://www.w3.org/2000/svg" xmlns:xlink="http://www.w3.org/1999/xlink" contentStyleType="text/css" data-diagram-type="DESCRIPTION" height="634px" preserveAspectRatio="none" style="width:719px;height:634px;background:#FEFEFE;" version="1.1" viewBox="0 0 719 634" width="719px" zoomAndPan="magnify"><?plantuml 1.2026.5?><defs/><g><rect fill="#FEFEFE" height="634" style="stroke:none;stroke-width:1;" width="719" x="0" y="0"/><g class="title" data-source-line="1"><text fill="#000000" font-family="sans-serif" font-size="14" font-weight="700" lengthAdjust="spacing" textLength="341.9883" x="185.0608" y="24.5332">RCC Driver &#8212; Clock Tree (Peripheral Enable Paths)</text></g><!--entity SRC--><g class="entity" data-qualified-name="SRC" data-source-line="9" id="ent0001"><rect fill="#F5FAFF" height="55.2188" rx="2.5" ry="2.5" style="stroke:#2C7FB8;stroke-width:0.5;" width="163.1445" x="281.5" y="45.6094"/><text fill="#000000" font-family="sans-serif" font-size="14" lengthAdjust="spacing" textLength="100.3721" x="291.5" y="70.1426">HSI / HSE / PLL</text><text fill="#000000" font-family="sans-serif" font-size="14" lengthAdjust="spacing" textLength="143.1445" x="291.5" y="87.752">(System Clock Source)</text></g><!--entity AHB_PRE--><g class="entity" data-qualified-name="AHB_PRE" data-source-line="10" id="ent0002"><rect fill="#F5FAFF" height="55.2188" rx="2.5" ry="2.5" style="stroke:#2C7FB8;stroke-width:0.5;" width="142.5342" x="291.5" y="161.6094"/><text fill="#000000" font-family="sans-serif" font-size="14" lengthAdjust="spacing" textLength="91.8066" x="301.5" y="186.1426">AHB Prescaler</text><text fill="#000000" font-family="sans-serif" font-size="14" lengthAdjust="spacing" textLength="122.5342" x="301.5" y="203.752">(SYSCLK -&gt; HCLK)</text></g><!--entity APB1_PRE--><g class="entity" data-qualified-name="APB1_PRE" data-source-line="11" id="ent0003"><rect fill="#F5FAFF" height="55.2188" rx="2.5" ry="2.5" style="stroke:#2C7FB8;stroke-width:0.5;" width="214.1064" x="7" y="277.6094"/><text fill="#000000" font-family="sans-serif" font-size="14" lengthAdjust="spacing" textLength="98.8203" x="17" y="302.1426">APB1 Prescaler</text><text fill="#000000" font-family="sans-serif" font-size="14" lengthAdjust="spacing" textLength="194.1064" x="17" y="319.752">(HCLK -&gt; PCLK1, max 42MHz)</text></g><!--entity APB2_PRE--><g class="entity" data-qualified-name="APB2_PRE" data-source-line="12" id="ent0004"><rect fill="#F5FAFF" height="55.2188" rx="2.5" ry="2.5" style="stroke:#2C7FB8;stroke-width:0.5;" width="214.1064" x="256" y="277.6094"/><text fill="#000000" font-family="sans-serif" font-size="14" lengthAdjust="spacing" textLength="98.8203" x="266" y="302.1426">APB2 Prescaler</text><text fill="#000000" font-family="sans-serif" font-size="14" lengthAdjust="spacing" textLength="194.1064" x="266" y="319.752">(HCLK -&gt; PCLK2, max 84MHz)</text></g><!--entity AHB1EN--><g class="entity" data-qualified-name="AHB1EN" data-source-line="14" id="ent0005"><rect fill="#F5FAFF" height="37.6094" rx="2.5" ry="2.5" style="stroke:#2C7FB8;stroke-width:0.5;" width="124.248" x="505" y="286.1094"/><text fill="#000000" font-family="sans-serif" font-size="14" lengthAdjust="spacing" textLength="104.248" x="515" y="310.6426">RCC_AHB1ENR</text></g><!--entity APB1EN--><g class="entity" data-qualified-name="APB1EN" data-source-line="15" id="ent0006"><rect fill="#F5FAFF" height="37.6094" rx="2.5" ry="2.5" style="stroke:#2C7FB8;stroke-width:0.5;" width="123.4756" x="52.5" y="419.1094"/><text fill="#000000" font-family="sans-serif" font-size="14" lengthAdjust="spacing" textLength="103.4756" x="62.5" y="443.6426">RCC_APB1ENR</text></g><!--entity APB2EN--><g class="entity" data-qualified-name="APB2EN" data-source-line="16" id="ent0007"><rect fill="#F5FAFF" height="37.6094" rx="2.5" ry="2.5" style="stroke:#2C7FB8;stroke-width:0.5;" width="123.4756" x="301.5" y="419.1094"/><text fill="#000000" font-family="sans-serif" font-size="14" lengthAdjust="spacing" textLength="103.4756" x="311.5" y="443.6426">RCC_APB2ENR</text></g><!--entity GPIO_P--><g class="entity" data-qualified-name="GPIO_P" data-source-line="18" id="ent0008"><rect fill="#F5FAFF" height="55.2188" rx="2.5" ry="2.5" style="stroke:#2C7FB8;stroke-width:0.5;" width="76.0137" x="529" y="410.6094"/><text fill="#000000" font-family="sans-serif" font-size="14" lengthAdjust="spacing" textLength="56.0137" x="539" y="435.1426">GPIOA..I</text><text fill="#000000" font-family="sans-serif" font-size="14" lengthAdjust="spacing" textLength="45.8965" x="539" y="452.752">(AHB1)</text></g><!--entity APB1_P--><g class="entity" data-qualified-name="APB1_P" data-source-line="19" id="ent0009"><rect fill="#F5FAFF" height="55.2188" rx="2.5" ry="2.5" style="stroke:#2C7FB8;stroke-width:0.5;" width="121.9375" x="53" y="553.6094"/><text fill="#000000" font-family="sans-serif" font-size="14" lengthAdjust="spacing" textLength="66.9102" x="63" y="578.1426">USART2/3</text><text fill="#000000" font-family="sans-serif" font-size="14" lengthAdjust="spacing" textLength="101.9375" x="63" y="595.752">I2C1/2/3 (APB1)</text></g><!--entity APB2_P--><g class="entity" data-qualified-name="APB2_P" data-source-line="20" id="ent0010"><rect fill="#F5FAFF" height="55.2188" rx="2.5" ry="2.5" style="stroke:#2C7FB8;stroke-width:0.5;" width="99.3652" x="313.5" y="553.6094"/><text fill="#000000" font-family="sans-serif" font-size="14" lengthAdjust="spacing" textLength="66.9102" x="323.5" y="578.1426">USART1/6</text><text fill="#000000" font-family="sans-serif" font-size="14" lengthAdjust="spacing" textLength="79.3652" x="323.5" y="595.752">SPI1 (APB2)</text></g><g class="entity" data-qualified-name="GMN20" data-source-line="35" id="ent0021"><path d="M448.5,543.6094 L448.5,619.0156 A0,0 0 0 0 448.5,619.0156 L685.5425,619.0156 A0,0 0 0 0 685.5425,619.0156 L685.5425,553.6094 L675.5425,543.6094 L571,543.6094 L567,465.6294 L563,543.6094 L448.5,543.6094 A0,0 0 0 0 448.5,543.6094" fill="#FEFFDD" style="stroke:#181818;stroke-width:0.5;"/><path d="M675.5425,543.6094 L675.5425,553.6094 L685.5425,553.6094 L675.5425,543.6094" fill="#FEFFDD" style="stroke:#181818;stroke-width:0.5;"/><text fill="#000000" font-family="sans-serif" font-size="13" lengthAdjust="spacing" textLength="181.3208" x="454.5" y="562.1045">Every driver constructor (GPIO,</text><text fill="#000000" font-family="sans-serif" font-size="13" lengthAdjust="spacing" textLength="155.3208" x="454.5" y="578.4561">USART, SPI, I2C) calls the</text><text fill="#000000" font-family="sans-serif" font-size="13" lengthAdjust="spacing" textLength="216.0425" x="454.5" y="594.8076">matching RCC_Driver enable method</text><text fill="#000000" font-family="sans-serif" font-size="13" lengthAdjust="spacing" textLength="208.1206" x="454.5" y="611.1592">before touching peripheral registers.</text></g><!--link SRC to AHB_PRE--><g class="link" data-entity-1="ent0001" data-entity-2="ent0002" data-link-type="dependency" data-source-line="22" id="lnk11"><path d="M363,100.8394 C363,119.1294 363,138.2894 363,156.5494" fill="none" id="SRC-to-AHB_PRE" style="stroke:#181818;stroke-width:1;"/><polygon fill="#181818" points="363,161.5494,367,152.5494,363,156.5494,359,152.5494,363,161.5494" style="stroke:#181818;stroke-width:1;stroke-linejoin:miter;stroke-miterlimit:10;"/></g><!--link AHB_PRE to APB1_PRE--><g class="link" data-entity-1="ent0002" data-entity-2="ent0003" data-link-type="dependency" data-source-line="23" id="lnk12"><path d="M304.93,216.6894 C264.98,234.9794 216.6762,257.0979 176.7062,275.3979" fill="none" id="AHB_PRE-to-APB1_PRE" style="stroke:#181818;stroke-width:1;"/><polygon fill="#181818" points="172.16,277.4794,182.0082,277.3697,176.7062,275.3979,178.678,270.0959,172.16,277.4794" style="stroke:#181818;stroke-width:1;stroke-linejoin:miter;stroke-miterlimit:10;"/></g><!--link AHB_PRE to APB2_PRE--><g class="link" data-entity-1="ent0002" data-entity-2="ent0004" data-link-type="dependency" data-source-line="24" id="lnk13"><path d="M363,216.8394 C363,235.1294 363,254.2894 363,272.5494" fill="none" id="AHB_PRE-to-APB2_PRE" style="stroke:#181818;stroke-width:1;"/><polygon fill="#181818" points="363,277.5494,367,268.5494,363,272.5494,359,268.5494,363,277.5494" style="stroke:#181818;stroke-width:1;stroke-linejoin:miter;stroke-miterlimit:10;"/></g><!--link AHB_PRE to AHB1EN--><g class="link" data-entity-1="ent0002" data-entity-2="ent0005" data-link-type="dependency" data-source-line="26" id="lnk14"><path d="M410.57,216.6894 C448.72,238.0094 496.8655,264.9099 530.2855,283.5899" fill="none" id="AHB_PRE-to-AHB1EN" style="stroke:#181818;stroke-width:1;"/><polygon fill="#181818" points="534.65,286.0294,528.7455,278.1467,530.2855,283.5899,524.8423,285.1298,534.65,286.0294" style="stroke:#181818;stroke-width:1;stroke-linejoin:miter;stroke-miterlimit:10;"/></g><!--link APB1_PRE to APB1EN--><g class="link" data-entity-1="ent0003" data-entity-2="ent0006" data-link-type="dependency" data-source-line="27" id="lnk15"><path d="M114,332.6194 C114,358.3394 114,391.6694 114,414.0494" fill="none" id="APB1_PRE-to-APB1EN" style="stroke:#181818;stroke-width:1;"/><polygon fill="#181818" points="114,419.0494,118,410.0494,114,414.0494,110,410.0494,114,419.0494" style="stroke:#181818;stroke-width:1;stroke-linejoin:miter;stroke-miterlimit:10;"/></g><!--link APB2_PRE to APB2EN--><g class="link" data-entity-1="ent0004" data-entity-2="ent0007" data-link-type="dependency" data-source-line="28" id="lnk16"><path d="M363,332.6194 C363,358.3394 363,391.6694 363,414.0494" fill="none" id="APB2_PRE-to-APB2EN" style="stroke:#181818;stroke-width:1;"/><polygon fill="#181818" points="363,419.0494,367,410.0494,363,414.0494,359,410.0494,363,419.0494" style="stroke:#181818;stroke-width:1;stroke-linejoin:miter;stroke-miterlimit:10;"/></g><!--link AHB1EN to GPIO_P--><g class="link" data-entity-1="ent0005" data-entity-2="ent0008" data-link-type="dependency" data-source-line="30" id="lnk17"><path d="M567,324.3194 C567,346.6794 567,379.7694 567,405.4294" fill="none" id="AHB1EN-to-GPIO_P" style="stroke:#181818;stroke-width:1;"/><polygon fill="#181818" points="567,410.4294,571,401.4294,567,405.4294,563,401.4294,567,410.4294" style="stroke:#181818;stroke-width:1;stroke-linejoin:miter;stroke-miterlimit:10;"/><text fill="#000000" font-family="sans-serif" font-size="13" lengthAdjust="spacing" textLength="135.1099" x="568" y="377.1045">enableGPIOClock(port)</text></g><!--link APB1EN to APB1_P--><g class="link" data-entity-1="ent0006" data-entity-2="ent0009" data-link-type="dependency" data-source-line="31" id="lnk18"><path d="M114,457.2494 C114,481.6494 114,520.2094 114,548.3694" fill="none" id="APB1EN-to-APB1_P" style="stroke:#181818;stroke-width:1;"/><polygon fill="#181818" points="114,553.3694,118,544.3694,114,548.3694,110,544.3694,114,553.3694" style="stroke:#181818;stroke-width:1;stroke-linejoin:miter;stroke-miterlimit:10;"/><text fill="#000000" font-family="sans-serif" font-size="13" lengthAdjust="spacing" textLength="171.2598" x="115" y="510.1045">enableAPB1Clock(peripheral)</text></g><!--link APB2EN to APB2_P--><g class="link" data-entity-1="ent0007" data-entity-2="ent0010" data-link-type="dependency" data-source-line="32" id="lnk19"><path d="M363,457.2494 C363,481.6494 363,520.2094 363,548.3694" fill="none" id="APB2EN-to-APB2_P" style="stroke:#181818;stroke-width:1;"/><polygon fill="#181818" points="363,553.3694,367,544.3694,363,548.3694,359,544.3694,363,553.3694" style="stroke:#181818;stroke-width:1;stroke-linejoin:miter;stroke-miterlimit:10;"/><text fill="#000000" font-family="sans-serif" font-size="13" lengthAdjust="spacing" textLength="171.2598" x="364" y="510.1045">enableAPB2Clock(peripheral)</text></g><?plantuml-src TPF1ZjCm48RlVehHSccbRgkOPLbnG6f3GYBAOYNB0QbIvQRUDcfYLuwBM10I3y4JyYICuxHrADj8jJFv_j_ZiSUKfXAGXI6yq-LNeU7FhzyGLghOmOCM0WPCw7A_5PfN44c-GfXniss6X3IxKkwvvZMiUB7RQ7MGwr1LIiEBEBAFHsXH62utgFv107-p2yMhU1h7xflIQw6xE0rVnxCxyfEGiyLLagSmWIIFy9_Dvmivo9yQ8-ekyLmTT266Ly0RoBFGLqwJ6J0jce9NGblTbpoSVu3hjv3Ww2J8B5aMzMHi5lHqIQTYE0OZgFatkA4Va--T0-B_iQ3FMb1dSNVZMz3MmlV0OrfYTa5qdnqpnVa5mJo2FKDGZy1vRvdtBFqq7OzJJDAku1AomINpiS_vD7kWavSBcT8mcE0C1dOzlmONV32vNSYSfK7BKd-pXE1XmJMMv7W2tUXYnvh-4-ogr8kwiXmL9xcBqPxQRjtnRSZj4jw0QE-wVMtlr62lj1aIv-BbSoBjQqUU6gRbwPcdVPvUyaGg8s2bZ54rgCTZqG4YRCqdMBiMBPHiZ3uK1XjaO94H4crrHu2b7G6Unn3mdbKDcAt0ZpKtnRQK6zleowxHNHvG2xDLQsHMub5f0KOT77hE2xjtKs9_wMPCX5o3JPBy1G00?></g></svg>