<svg xmlns="http://www.w3.org/2000/svg" xmlns:xlink="http://www.w3.org/1999/xlink" contentStyleType="text/css" data-diagram-type="STATE" height="1039px" preserveAspectRatio="none" style="width:800px;height:1039px;background:#FEFEFE;" version="1.1" viewBox="0 0 800 1039" width="800px" zoomAndPan="magnify"><?plantuml 1.2026.5?><defs/><g><rect fill="#FEFEFE" height="1039" style="stroke:none;stroke-width:1;" width="800" x="0" y="0"/><g class="title" data-source-line="1"><text fill="#000000" font-family="sans-serif" font-size="14" font-weight="700" lengthAdjust="spacing" textLength="314.7607" x="239.238" y="24.5332">I2C Driver &#8212; Master Transaction State Machine</text></g><g class="entity" data-qualified-name="TransferData" data-source-line="21" id="ent0001"><path d="M19.5,213.6094 L523.998,213.6094 A12.5,12.5 0 0 1 536.498,226.1094 L536.498,241.2188 L7,241.2188 L7,226.1094 A12.5,12.5 0 0 1 19.5,213.6094" fill="#F5FAFF"/><path d="M7,241.2188 L536.498,241.2188 L536.498,468.7188 A12.5,12.5 0 0 1 523.998,481.2188 L19.5,481.2188 A12.5,12.5 0 0 1 7,468.7188 L7,241.2188" fill="#F5FAFF"/><rect fill="none" height="267.6094" rx="12.5" ry="12.5" style="stroke:#2C7FB8;stroke-width:0.5;" width="529.498" x="7" y="213.6094"/><line style="stroke:#2C7FB8;stroke-width:0.5;" x1="7" x2="536.498" y1="241.2188" y2="241.2188"/><text fill="#000000" font-family="sans-serif" font-size="14" lengthAdjust="spacing" textLength="81.6963" x="230.9009" y="233.1426">TransferData</text><g class="start_entity" data-qualified-name="TransferData..start.TransferData" data-source-line="22" id="ent0012"><ellipse cx="176" cy="262.2188" fill="#222222" rx="10" ry="10" style="stroke:#222222;stroke-width:1;"/></g><g class="entity" data-qualified-name="TransferData.Writing" data-source-line="22" id="ent0013"><rect fill="#F5FAFF" height="50" rx="12.5" ry="12.5" style="stroke:#2C7FB8;stroke-width:0.5;" width="63.5586" x="19" y="326.2188"/><line style="stroke:#2C7FB8;stroke-width:0.5;" x1="19" x2="82.5586" y1="353.8281" y2="353.8281"/><text fill="#000000" font-family="sans-serif" font-size="14" lengthAdjust="spacing" textLength="43.5586" x="29" y="345.752">Writing</text></g><g class="entity" data-qualified-name="TransferData.Reading" data-source-line="23" id="ent0015"><rect fill="#F5FAFF" height="50" rx="12.5" ry="12.5" style="stroke:#2C7FB8;stroke-width:0.5;" width="72.1514" x="266" y="326.2188"/><line style="stroke:#2C7FB8;stroke-width:0.5;" x1="266" x2="338.1514" y1="353.8281" y2="353.8281"/><text fill="#000000" font-family="sans-serif" font-size="14" lengthAdjust="spacing" textLength="52.1514" x="276" y="345.752">Reading</text></g><g class="end_entity" data-qualified-name="TransferData..end.TransferData" data-source-line="26" id="ent0018"><ellipse cx="176" cy="457.2188" fill="none" rx="11" ry="11" style="stroke:#222222;stroke-width:1;"/><ellipse cx="176" cy="457.2188" fill="#222222" rx="6" ry="6" style="stroke:#222222;stroke-width:1;"/></g><!--link *start*TransferData to Writing--><g class="link" data-entity-1="ent0012" data-entity-2="ent0013" data-link-type="dependency" data-source-line="22" id="lnk14"><path d="M168.18,268.6588 C151.5,280.2688 115.7442,305.163 87.1442,325.063" fill="none" id="*start*TransferData-to-Writing" style="stroke:#2C7FB8;stroke-width:1;"/><polygon fill="#2C7FB8" points="83.04,327.9188,92.7122,326.0618,87.1442,325.063,88.143,319.495,83.04,327.9188" style="stroke:#2C7FB8;stroke-width:1;stroke-linejoin:miter;stroke-miterlimit:10;"/><text fill="#000000" font-family="sans-serif" font-size="13" lengthAdjust="spacing" textLength="40.4409" x="137" y="304.7139">if Write</text></g><!--link *start*TransferData to Reading--><g class="link" data-entity-1="ent0012" data-entity-2="ent0015" data-link-type="dependency" data-source-line="23" id="lnk16"><path d="M183.88,268.6588 C200.21,279.9288 234.4657,303.5876 263.0657,323.3376" fill="none" id="*start*TransferData-to-Reading" style="stroke:#2C7FB8;stroke-width:1;"/><polygon fill="#2C7FB8" points="267.18,326.1788,262.0472,317.7732,263.0657,323.3376,257.5013,324.3561,267.18,326.1788" style="stroke:#2C7FB8;stroke-width:1;stroke-linejoin:miter;stroke-miterlimit:10;"/><text fill="#000000" font-family="sans-serif" font-size="13" lengthAdjust="spacing" textLength="41.1899" x="240" y="304.7139">if Read</text></g><!--link Writing to Writing--><g class="link" data-entity-1="ent0013" data-entity-2="ent0013" data-link-type="dependency" data-source-line="25" id="lnk17"><path d="M83.22,341.4788 C93.18,341.6788 101,344.9188 101,351.2188 C101,357.5188 98.179,360.6584 88.219,360.8584" fill="none" id="Writing-to-Writing" style="stroke:#2C7FB8;stroke-width:1;"/><polygon fill="#2C7FB8" points="83.22,360.9588,92.2985,364.7773,88.219,360.8584,92.1379,356.7789,83.22,360.9588" style="stroke:#2C7FB8;stroke-width:1;stroke-linejoin:miter;stroke-miterlimit:10;"/><text fill="#000000" font-family="sans-serif" font-size="13" lengthAdjust="spacing" textLength="61.4072" x="143.8418" y="348.7139">write(data)</text><text fill="#000000" font-family="sans-serif" font-size="13" lengthAdjust="spacing" textLength="135.0908" x="107" y="365.0654">write DR, poll SR1.TXE</text></g><!--link Writing to *end*TransferData--><g class="link" data-entity-1="ent0013" data-entity-2="ent0018" data-link-type="dependency" data-source-line="26" id="lnk19"><path d="M79.99,376.3388 C108.55,400.0988 146.5271,431.69 164.0071,446.24" fill="none" id="Writing-to-*end*TransferData" style="stroke:#2C7FB8;stroke-width:1;"/><polygon fill="#2C7FB8" points="167.85,449.4388,163.4918,440.6067,164.0071,446.24,158.3738,446.7553,167.85,449.4388" style="stroke:#2C7FB8;stroke-width:1;stroke-linejoin:miter;stroke-miterlimit:10;"/><text fill="#000000" font-family="sans-serif" font-size="13" lengthAdjust="spacing" textLength="79.4854" x="141" y="408.7139">all bytes sent,</text><text fill="#000000" font-family="sans-serif" font-size="13" lengthAdjust="spacing" textLength="77.3018" x="142.0918" y="425.0654">poll SR1.BTF</text></g><!--link Reading to Reading--><g class="link" data-entity-1="ent0015" data-entity-2="ent0015" data-link-type="dependency" data-source-line="28" id="lnk20"><path d="M338.09,341.5188 C348.22,341.9388 356,345.1788 356,351.2188 C356,357.2588 353.2157,360.2916 343.0857,360.7116" fill="none" id="Reading-to-Reading" style="stroke:#2C7FB8;stroke-width:1;"/><polygon fill="#2C7FB8" points="338.09,360.9188,347.248,364.5425,343.0857,360.7116,346.9166,356.5494,338.09,360.9188" style="stroke:#2C7FB8;stroke-width:1;stroke-linejoin:miter;stroke-miterlimit:10;"/><text fill="#000000" font-family="sans-serif" font-size="13" lengthAdjust="spacing" textLength="34.6772" x="416.9104" y="348.7139">read()</text><text fill="#000000" font-family="sans-serif" font-size="13" lengthAdjust="spacing" textLength="144.498" x="362" y="365.0654">poll SR1.RXNE, read DR</text></g><!--link Reading to *end*TransferData--><g class="link" data-entity-1="ent0015" data-entity-2="ent0018" data-link-type="dependency" data-source-line="29" id="lnk21"><path d="M280.52,376.4888 C265.81,392.2988 245.35,412.7788 225,428.2188 C212.35,437.8088 200.5709,444.2602 190.3309,449.3302" fill="none" id="Reading-to-*end*TransferData" style="stroke:#2C7FB8;stroke-width:1;"/><polygon fill="#2C7FB8" points="185.85,451.5488,195.6904,451.14,190.3309,449.3302,192.1407,443.9707,185.85,451.5488" style="stroke:#2C7FB8;stroke-width:1;stroke-linejoin:miter;stroke-miterlimit:10;"/><text fill="#000000" font-family="sans-serif" font-size="13" lengthAdjust="spacing" textLength="52.0254" x="328.9331" y="408.7139">last byte:</text><text fill="#000000" font-family="sans-serif" font-size="13" lengthAdjust="spacing" textLength="183.8916" x="263" y="425.0654">NACK + STOP before final read</text></g></g><g class="start_entity" data-qualified-name=".start." data-source-line="13" id="ent0002"><ellipse cx="377.5" cy="600.6094" fill="#222222" rx="10" ry="10" style="stroke:#222222;stroke-width:1;"/></g><g class="entity" data-qualified-name="Idle" data-source-line="13" id="ent0003"><rect fill="#F5FAFF" height="50" rx="12.5" ry="12.5" style="stroke:#2C7FB8;stroke-width:0.5;" width="50" x="352.5" y="703.6094"/><line style="stroke:#2C7FB8;stroke-width:0.5;" x1="352.5" x2="402.5" y1="731.2188" y2="731.2188"/><text fill="#000000" font-family="sans-serif" font-size="14" lengthAdjust="spacing" textLength="22.5723" x="366.2139" y="723.1426">Idle</text></g><g class="entity" data-qualified-name="GenStart" data-source-line="15" id="ent0005"><rect fill="#F5FAFF" height="50" rx="12.5" ry="12.5" style="stroke:#2C7FB8;stroke-width:0.5;" width="76.0273" x="433.5" y="847.6094"/><line style="stroke:#2C7FB8;stroke-width:0.5;" x1="433.5" x2="509.5273" y1="875.2188" y2="875.2188"/><text fill="#000000" font-family="sans-serif" font-size="14" lengthAdjust="spacing" textLength="56.0273" x="443.5" y="867.1426">GenStart</text></g><g class="entity" data-qualified-name="AddressPhase" data-source-line="16" id="ent0007"><rect fill="#F5FAFF" height="50" rx="12.5" ry="12.5" style="stroke:#2C7FB8;stroke-width:0.5;" width="111.0547" x="475" y="975.6094"/><line style="stroke:#2C7FB8;stroke-width:0.5;" x1="475" x2="586.0547" y1="1003.2188" y2="1003.2188"/><text fill="#000000" font-family="sans-serif" font-size="14" lengthAdjust="spacing" textLength="91.0547" x="485" y="995.1426">AddressPhase</text></g><g class="entity" data-qualified-name="AddrAck" data-source-line="18" id="ent0009"><rect fill="#F5FAFF" height="50" rx="12.5" ry="12.5" style="stroke:#2C7FB8;stroke-width:0.5;" width="72.9102" x="394" y="57.1094"/><line style="stroke:#2C7FB8;stroke-width:0.5;" x1="394" x2="466.9102" y1="84.7188" y2="84.7188"/><text fill="#000000" font-family="sans-serif" font-size="14" lengthAdjust="spacing" textLength="52.9102" x="404" y="76.6426">AddrAck</text></g><g class="entity" data-qualified-name="GenStop" data-source-line="32" id="ent0022"><rect fill="#F5FAFF" height="50" rx="12.5" ry="12.5" style="stroke:#2C7FB8;stroke-width:0.5;" width="75.2617" x="251" y="575.6094"/><line style="stroke:#2C7FB8;stroke-width:0.5;" x1="251" x2="326.2617" y1="603.2188" y2="603.2188"/><text fill="#000000" font-family="sans-serif" font-size="14" lengthAdjust="spacing" textLength="55.2617" x="261" y="595.1426">GenStop</text></g><g class="entity" data-qualified-name="GMN26" data-source-line="38" id="ent0027"><path d="M502.5,44.6094 L502.5,78.1094 L467.2,82.1094 L502.5,86.1094 L502.5,120.0156 A0,0 0 0 0 502.5,120.0156 L706.2871,120.0156 A0,0 0 0 0 706.2871,120.0156 L706.2871,54.6094 L696.2871,44.6094 L502.5,44.6094 A0,0 0 0 0 502.5,44.6094" fill="#FEFFDD" style="stroke:#181818;stroke-width:0.5;"/><path d="M696.2871,44.6094 L696.2871,54.6094 L706.2871,54.6094 L696.2871,44.6094" fill="#FEFFDD" style="stroke:#181818;stroke-width:0.5;"/><text fill="#000000" font-family="sans-serif" font-size="13" lengthAdjust="spacing" textLength="182.7871" x="508.5" y="63.1045">NACK on address (SR1.AF set)</text><text fill="#000000" font-family="sans-serif" font-size="13" lengthAdjust="spacing" textLength="165.4771" x="508.5" y="79.4561">means device not present &#8212;</text><text fill="#000000" font-family="sans-serif" font-size="13" lengthAdjust="spacing" textLength="151.7407" x="508.5" y="95.8076">driver should clear AF and</text><text fill="#000000" font-family="sans-serif" font-size="13" lengthAdjust="spacing" textLength="93.939" x="508.5" y="112.1592">generate STOP.</text></g><!--link *start* to Idle--><g class="link" data-entity-1="ent0002" data-entity-2="ent0003" data-link-type="dependency" data-source-line="13" id="lnk4"><path d="M377.5,610.6694 C377.5,629.8594 377.5,670.1294 377.5,698.3794" fill="none" id="*start*-to-Idle" style="stroke:#2C7FB8;stroke-width:1;"/><polygon fill="#2C7FB8" points="377.5,703.3794,381.5,694.3794,377.5,698.3794,373.5,694.3794,377.5,703.3794" style="stroke:#2C7FB8;stroke-width:1;stroke-linejoin:miter;stroke-miterlimit:10;"/></g><!--link Idle to GenStart--><g class="link" data-entity-1="ent0003" data-entity-2="ent0005" data-link-type="dependency" data-source-line="15" id="lnk6"><path d="M393.45,753.6994 C410.73,779.8094 435.399,817.0808 452.719,843.2308" fill="none" id="Idle-to-GenStart" style="stroke:#2C7FB8;stroke-width:1;"/><polygon fill="#2C7FB8" points="455.48,847.3994,453.8451,837.6872,452.719,843.2308,447.1754,842.1047,455.48,847.3994" style="stroke:#2C7FB8;stroke-width:1;stroke-linejoin:miter;stroke-miterlimit:10;"/><text fill="#000000" font-family="sans-serif" font-size="13" lengthAdjust="spacing" textLength="33.9409" x="466.6672" y="798.1045">start()</text><text fill="#000000" font-family="sans-serif" font-size="13" lengthAdjust="spacing" textLength="94.2754" x="436.5" y="814.4561">CR1.START = 1</text></g><!--link GenStart to AddressPhase--><g class="link" data-entity-1="ent0005" data-entity-2="ent0007" data-link-type="dependency" data-source-line="16" id="lnk8"><path d="M466.25,897.6394 C464.26,912.1494 463.84,930.6494 470.5,945.6094 C475.63,957.1294 480.8032,963.9414 490.2432,972.1814" fill="none" id="GenStart-to-AddressPhase" style="stroke:#2C7FB8;stroke-width:1;"/><polygon fill="#2C7FB8" points="494.01,975.4694,489.8601,966.5375,490.2432,972.1814,484.5993,972.5644,494.01,975.4694" style="stroke:#2C7FB8;stroke-width:1;stroke-linejoin:miter;stroke-miterlimit:10;"/><text fill="#000000" font-family="sans-serif" font-size="13" lengthAdjust="spacing" textLength="91.0444" x="471.5" y="942.1045">poll SR1.SB set</text></g><!--link AddressPhase to AddrAck--><g class="link" data-entity-1="ent0007" data-entity-2="ent0009" data-link-type="dependency" data-source-line="18" id="lnk10"><path d="M549.49,975.5894 C566.74,951.3194 589.5,912.0194 589.5,873.6094 C589.5,346.6094 589.5,346.6094 589.5,346.6094 C589.5,318.2994 553.3,177.5894 531.5,149.6094 C516.5,130.3594 505.89,133.0294 485.5,119.6094 C479.47,115.6394 477.2364,114.1836 471.0264,110.0636" fill="none" id="AddressPhase-to-AddrAck" style="stroke:#2C7FB8;stroke-width:1;"/><polygon fill="#2C7FB8" points="466.86,107.2994,472.1482,115.6081,471.0264,110.0636,476.5709,108.9418,466.86,107.2994" style="stroke:#2C7FB8;stroke-width:1;stroke-linejoin:miter;stroke-miterlimit:10;"/><text fill="#000000" font-family="sans-serif" font-size="13" lengthAdjust="spacing" textLength="193.7368" x="590.5" y="670.1045">write DR = (7-bit addr &lt;&lt; 1) | R/W</text></g><!--link AddrAck to TransferData--><g class="link" data-entity-1="ent0009" data-entity-2="ent0001" data-link-type="dependency" data-source-line="19" id="lnk11"><path d="M415.83,107.4294 C400.87,132.2094 379.0328,168.3981 354.5028,209.0581" fill="none" id="AddrAck-to-TransferData" style="stroke:#2C7FB8;stroke-width:1;"/><polygon fill="#2C7FB8" points="351.92,213.3394,359.9941,207.6994,354.5028,209.0581,353.1441,203.5669,351.92,213.3394" style="stroke:#2C7FB8;stroke-width:1;stroke-linejoin:miter;stroke-miterlimit:10;"/><text fill="#000000" font-family="sans-serif" font-size="13" lengthAdjust="spacing" textLength="93.1963" x="408.9236" y="164.1045">poll SR1.ADDR,</text><text fill="#000000" font-family="sans-serif" font-size="13" lengthAdjust="spacing" textLength="134.0435" x="388.5" y="180.4561">read SR1+SR2 to clear</text></g><!--link TransferData to GenStop--><g class="link" data-entity-1="ent0001" data-entity-2="ent0022" data-link-type="dependency" data-source-line="32" id="lnk23"><path d="M280.52,481.8294 C282.95,517.7294 284.9915,547.8008 286.5115,570.2008" fill="none" id="TransferData-to-GenStop" style="stroke:#2C7FB8;stroke-width:1;"/><polygon fill="#2C7FB8" points="286.85,575.1894,290.2315,565.9392,286.5115,570.2008,282.2499,566.4808,286.85,575.1894" style="stroke:#2C7FB8;stroke-width:1;stroke-linejoin:miter;stroke-miterlimit:10;"/><text fill="#000000" font-family="sans-serif" font-size="13" lengthAdjust="spacing" textLength="33.23" x="313.4141" y="526.1045">stop()</text><text fill="#000000" font-family="sans-serif" font-size="13" lengthAdjust="spacing" textLength="87.0581" x="286.5" y="542.4561">CR1.STOP = 1</text></g><!--link GenStop to Idle--><g class="link" data-entity-1="ent0022" data-entity-2="ent0003" data-link-type="dependency" data-source-line="33" id="lnk24"><path d="M305.66,625.8994 C321.42,648.2194 341.7659,677.015 357.5059,699.305" fill="none" id="GenStop-to-Idle" style="stroke:#2C7FB8;stroke-width:1;"/><polygon fill="#2C7FB8" points="360.39,703.3894,358.466,693.7303,357.5059,699.305,351.9311,698.3449,360.39,703.3894" style="stroke:#2C7FB8;stroke-width:1;stroke-linejoin:miter;stroke-miterlimit:10;"/></g><!--link Idle to Idle--><g class="link" data-entity-1="ent0003" data-entity-2="ent0003" data-link-type="dependency" data-source-line="35" id="lnk25"><path d="M402.78,717.7794 C420.27,714.4994 437.5,718.1094 437.5,728.6094 C437.5,739.1094 425.1843,743.641 407.6943,740.361" fill="none" id="Idle-to-Idle" style="stroke:#2C7FB8;stroke-width:1;"/><polygon fill="#2C7FB8" points="402.78,739.4394,410.8885,745.0297,407.6943,740.361,412.3631,737.1668,402.78,739.4394" style="stroke:#2C7FB8;stroke-width:1;stroke-linejoin:miter;stroke-miterlimit:10;"/><text fill="#000000" font-family="sans-serif" font-size="13" lengthAdjust="spacing" textLength="69.3481" x="459.7627" y="726.1045">isBusBusy()</text><text fill="#000000" font-family="sans-serif" font-size="13" lengthAdjust="spacing" textLength="101.8735" x="443.5" y="742.4561">check SR2.BUSY</text></g><?plantuml-src RLJ_RjCm4FxVJt4IVz2oDTKAQAWQI6dQe0cjczB0XXX2RdnjhALsi9rD5I3n43mXJyBP8TqwQAeazjrtFxxx72TTXN0wIc1gv2qQ-Ftp5vnnw-WrDrnPNZYf5ImSTqY6efGAsLEOd-UpCMoqm0e5a8Ch4QpZId0ZO96VFH-bBq9SWsiPmbdysg0gFBgNP4V391iD5_HSq7EQzO6mRHI-GSYIPA3lb5HhABIopZI5qmPgxYYKeX2DfRpBRK1ekXaGeG4RmGSqShK5lkQIa40TDBpojNnfUupAOLJKTSIOlP6gvePlOCcBcxNHZHA9hYZHatJchmSUDZ3mZG7z9lzulqpZD6rjsWWqV_T7oN4wUHNsOsFqtVxs3yO-FViCWy4RE1KLCkRlOVaM5J5k78nzNkDw_Mj5d4MBFCvoU0r7REVXtMCX35fxKNAB1AbrLS72kq-8TSVOdhq3nCKD-TuPIMrDCmhQEnui9V55DZWvWQC-V8TiUCawPmyCcbYXcNB77sQAfzFiy5ePvCAl3sYeu3GK5N93F0Vkzh2UoAxvIwh1JteCSXKM-C2OKSYTqIyO6Jl4FZhqqXCKdkZg6ZkyBpA_cZt2-YHZu6HVRXrQOaivQcE7cEIfJzVLi5-FRzOFPkUTNSrdXs6RyZw2jPagEbaXrVXQpUFa7HpGMJc_W2Mkj45OIKLAzG6yDlRusgb2rq4KkhxN10NOIOBC_z5JU246xQJn_wt75YNIK6bGqUJzuYDZIXDVHgvB1thLAOIw27NI2UUjYA0NvfrwPVN9l46g4WJUoWA1Oa1DNaIZ_vAGkJsLO4lTLABL0n2O3ZiPrwZGU6du7YA6z0NmLR0_?></g></svg>